<?xml version="1.0" encoding="utf-8"?>
<!-- Generator: Adobe Illustrator 27.8.1, SVG Export Plug-In . SVG Version: 6.00 Build 0)  -->
<svg version="1.1" id="Layer_1" xmlns="http://www.w3.org/2000/svg" xmlns:xlink="http://www.w3.org/1999/xlink" x="0px" y="0px"
	 viewBox="0 0 806.2 599" style="enable-background:new 0 0 806.2 599;" xml:space="preserve">
<style type="text/css">
	.st0{fill:none;}
	.st1{fill:#B3B3B3;}
	.st2{fill:#FFFFFF;}
	.st3{fill:url(#SVGID_1_);}
	.st4{fill:#CFCFCF;}
	.st5{fill:#E6E6E6;}
	.st6{fill:#121212;}
	.st7{fill:#080808;}
	.st8{opacity:0.12;}
	.st9{fill:url(#SVGID_00000020366780963518138230000002341331136145600393_);}
	.st10{fill:#1F1F1F;}
	.st11{fill:url(#SVGID_00000026130893398263866740000009301530576168129177_);}
	.st12{fill:url(#SVGID_00000005237346629294650610000006130375967908222643_);}
	.st13{fill:url(#SVGID_00000065788639543610064090000015973981879071643520_);}
	.st14{fill:url(#SVGID_00000140704666096431005010000003936888260102903178_);}
	.st15{fill:#2C2C2C;}
	.st16{fill:#222222;}
	.st17{fill:url(#SVGID_00000155134514131684114320000010645631032407309704_);}
	.st18{fill:#7CB2E8;}
	.st19{fill:#FF69F8;}
	.st20{fill:#40E2A0;}
	.st21{fill:#050505;stroke:#000000;stroke-width:2;stroke-miterlimit:10;}
	.st22{fill:#F2F2F2;}
	.st23{fill:url(#SVGID_00000057830619526792912670000003891975098330030726_);}
	.st24{fill:url(#SVGID_00000049185867815666564650000010084127425777475755_);}
	.st25{opacity:0.1;fill:#E6E6E6;enable-background:new    ;}
	.st26{opacity:8.000000e-02;fill:url(#SVGID_00000141424165701479034200000006829602410666035349_);enable-background:new    ;}
	.st27{opacity:0.22;enable-background:new    ;}
	.st28{opacity:8.000000e-02;fill:url(#SVGID_00000034063293049336668380000005758247617273615519_);enable-background:new    ;}
	.st29{fill:url(#SVGID_00000036244298147191930170000017708119684669752976_);}
	.st30{fill:url(#SVGID_00000031901685340458230300000012980222975852217984_);}
	.st31{fill:url(#SVGID_00000023268206357485001790000012807621336589380228_);}
	.st32{opacity:0.25;enable-background:new    ;}
	.st33{fill:url(#SVGID_00000000194059512918669550000018335363048271280560_);}
	.st34{fill:url(#SVGID_00000148646855794756498070000009959679312795773059_);}
	.st35{fill:url(#SVGID_00000062875482823307080100000000190788606627430020_);}
	.st36{fill:#0B0B0F;}
	.st37{fill:url(#SVGID_00000000224026616301545300000013844194358750201534_);}
	.st38{fill:url(#SVGID_00000000217353415848044770000001144532091021662633_);}
	.st39{opacity:0.2;}
	.st40{fill:url(#SVGID_00000139975458091584015900000003995024773546948523_);}
	.st41{fill:url(#SVGID_00000124134729611062586980000008110787829086859411_);}
	.st42{fill:url(#SVGID_00000107561939768402067800000008503908451417648517_);}
	.st43{opacity:8.000000e-02;}
	.st44{fill:url(#SVGID_00000141431080643248117680000008220247390000365459_);}
	.st45{fill:url(#SVGID_00000021814021777335337370000002861924298825697168_);}
	.st46{fill:none;stroke:#FFFFFF;stroke-width:2;stroke-miterlimit:10;}
</style>
<pattern  y="599" width="71" height="71" patternUnits="userSpaceOnUse" id="SVGID_5_" viewBox="0 -71 71 71" style="overflow:visible;">
	<g>
		<rect y="-71" class="st0" width="71" height="71"/>
		<rect y="-71" class="st0" width="71" height="71"/>
		<g>
			<polygon class="st0" points="0,0 71,0 71,-71 0,-71 			"/>
			<g>
				<polygon class="st0" points="0,0 71,0 71,-71 0,-71 				"/>
				<path class="st1" d="M41.8-35.5c0-3.5-2.8-6.3-6.3-6.3c-3.5,0-6.3,2.8-6.3,6.3c0,3.5,2.8,6.3,6.3,6.3c0,0,0,0,0,0
					C39-29.2,41.8-32,41.8-35.5C41.8-35.5,41.8-35.5,41.8-35.5z"/>
			</g>
		</g>
	</g>
</pattern>
<pattern  y="599" width="40" height="103" patternUnits="userSpaceOnUse" id="SVGID_6_" viewBox="0 -231.7 40 103" style="overflow:visible;">
	<g>
		<rect y="-231.7" class="st0" width="40" height="103"/>
		<rect y="-231.7" class="st0" width="40" height="103"/>
		<g>
			<polygon class="st0" points="0,-128.7 40,-128.7 40,-231.7 0,-231.7 			"/>
			<g>
				<polygon class="st0" points="0,-128.7 40,-128.7 40,-231.7 0,-231.7 				"/>
				<polygon points="34.5,-360.5 37.5,-360.5 37.5,-206 34.5,-206 				"/>
				<polygon points="26.5,-360.5 29.5,-360.5 29.5,-206 26.5,-206 				"/>
				<polygon points="18.5,-360.5 21.5,-360.5 21.5,-206 18.5,-206 				"/>
				<polygon points="10.5,-360.5 13.5,-360.5 13.5,-206 10.5,-206 				"/>
				<polygon points="2.5,-360.5 5.5,-360.5 5.5,-206 2.5,-206 				"/>
				<polygon points="34.5,-257.5 37.5,-257.5 37.5,-103 34.5,-103 				"/>
				<polygon points="26.5,-257.5 29.5,-257.5 29.5,-103 26.5,-103 				"/>
				<polygon points="18.5,-257.5 21.5,-257.5 21.5,-103 18.5,-103 				"/>
				<polygon points="10.5,-257.5 13.5,-257.5 13.5,-103 10.5,-103 				"/>
				<polygon points="2.5,-257.5 5.5,-257.5 5.5,-103 2.5,-103 				"/>
				<polygon points="34.5,-154.5 37.5,-154.5 37.5,0 34.5,0 				"/>
				<polygon points="26.5,-154.5 29.5,-154.5 29.5,0 26.5,0 				"/>
				<polygon points="18.5,-154.5 21.5,-154.5 21.5,0 18.5,0 				"/>
				<polygon points="10.5,-154.5 13.5,-154.5 13.5,0 10.5,0 				"/>
				<polygon points="2.5,-154.5 5.5,-154.5 5.5,0 2.5,0 				"/>
			</g>
		</g>
	</g>
</pattern>
<pattern  y="599" width="40" height="103" patternUnits="userSpaceOnUse" id="SVGID_7_" viewBox="0 -231.7 40 103" style="overflow:visible;">
	<g>
		<rect y="-231.7" class="st0" width="40" height="103"/>
		<rect y="-231.7" class="st0" width="40" height="103"/>
		<g>
			<polygon class="st0" points="0,-128.7 40,-128.7 40,-231.7 0,-231.7 			"/>
			<g>
				<polygon class="st0" points="0,-128.7 40,-128.7 40,-231.7 0,-231.7 				"/>
				<polygon points="34.5,-360.5 37.5,-360.5 37.5,-206 34.5,-206 				"/>
				<polygon points="26.5,-360.5 29.5,-360.5 29.5,-206 26.5,-206 				"/>
				<polygon points="18.5,-360.5 21.5,-360.5 21.5,-206 18.5,-206 				"/>
				<polygon points="10.5,-360.5 13.5,-360.5 13.5,-206 10.5,-206 				"/>
				<polygon points="2.5,-360.5 5.5,-360.5 5.5,-206 2.5,-206 				"/>
				<polygon points="34.5,-257.5 37.5,-257.5 37.5,-103 34.5,-103 				"/>
				<polygon points="26.5,-257.5 29.5,-257.5 29.5,-103 26.5,-103 				"/>
				<polygon points="18.5,-257.5 21.5,-257.5 21.5,-103 18.5,-103 				"/>
				<polygon points="10.5,-257.5 13.5,-257.5 13.5,-103 10.5,-103 				"/>
				<polygon points="2.5,-257.5 5.5,-257.5 5.5,-103 2.5,-103 				"/>
				<polygon points="34.5,-154.5 37.5,-154.5 37.5,0 34.5,0 				"/>
				<polygon points="26.5,-154.5 29.5,-154.5 29.5,0 26.5,0 				"/>
				<polygon points="18.5,-154.5 21.5,-154.5 21.5,0 18.5,0 				"/>
				<polygon points="10.5,-154.5 13.5,-154.5 13.5,0 10.5,0 				"/>
				<polygon points="2.5,-154.5 5.5,-154.5 5.5,0 2.5,0 				"/>
			</g>
		</g>
	</g>
</pattern>
<pattern  y="599" width="71" height="71" patternUnits="userSpaceOnUse" id="SVGID_8_" viewBox="0 -71 71 71" style="overflow:visible;">
	<g>
		<rect y="-71" class="st0" width="71" height="71"/>
		<rect y="-71" class="st0" width="71" height="71"/>
		<g>
			<polygon class="st0" points="0,0 71,0 71,-71 0,-71 			"/>
			<g>
				<polygon class="st0" points="0,0 71,0 71,-71 0,-71 				"/>
				<path class="st2" d="M41.8-35.5c0-3.5-2.8-6.3-6.3-6.3c-3.5,0-6.3,2.8-6.3,6.3c0,3.5,2.8,6.3,6.3,6.3c0,0,0,0,0,0
					C39-29.2,41.8-32,41.8-35.5C41.8-35.5,41.8-35.5,41.8-35.5z"/>
			</g>
		</g>
	</g>
</pattern>
<g>
	<g>
		<linearGradient id="SVGID_1_" gradientUnits="userSpaceOnUse" x1="403" y1="598.9667" x2="403" y2="112.9">
			<stop  offset="0.4581" style="stop-color:#950AFF"/>
			<stop  offset="1" style="stop-color:#150D59"/>
		</linearGradient>
		<path class="st3" d="M801.4,418.7c-2.9-15.5-17.7-102.5-32-144.6c-9.4-27.7-13.1-53-17-64.9c-12-35.7-33-65.7-33-65.7
			s-9.5-13.1-10.1-16.3s-4.7-8.6-4.7-8.6s-17.4-5.7-62.3-5.7s-53.7,5-53.7,5c-1.7,1.9-3.7,3.5-5.9,4.8c-3.5,1.8-11.7,1.7-11.7,1.7
			h-33.4c-0.3-0.1-0.7,0.1-0.9,0.3c-0.3,0.6-0.5,1.3-0.6,2H270c-0.1-0.7-0.3-1.4-0.6-2c-0.2-0.2-0.6-0.3-0.9-0.3h-33.4
			c0,0-8.2,0.2-11.7-1.7c-2.2-1.2-4.2-2.8-5.9-4.8c0,0-8.8-5-53.7-5s-62.3,5.7-62.3,5.7s-4.1,5.3-4.7,8.6
			c-0.6,3.3-10.1,16.3-10.1,16.3s-21,30-33,65.7c-4,11.9-7.7,37.2-17,64.9c-14.3,42.1-29.1,129.1-32,144.6
			C0.4,441.9,0,508.8,0,508.8s4.5,53.4,36.2,74.9s56.7,14,56.7,14s33.1-8.2,57.8-41.9s56.6-129.2,56.6-129.2
			c1.6-2.1,3.5-3.8,5.7-5.3c1.9-1.3,4-2.2,6.3-2.6l183.7,0.1l183.7-0.1c2.3,0.4,4.4,1.3,6.3,2.6c2.2,1.5,4.1,3.2,5.7,5.3
			c0,0,31.9,95.4,56.6,129.2s57.8,41.9,57.8,41.9s25,7.5,56.7-14s36.2-74.9,36.2-74.9S805.8,441.8,801.4,418.7z"/>
		<path class="st4" d="M36.7,276c9.4-27.7,13.1-53,17-64.9c12-35.7,33-65.7,33-65.7s9.5-13.1,10.1-16.3s4.7-8.6,4.7-8.6
			s17.4-5.7,62.3-5.7s53.7,5,53.7,5c1.7,1.9,3.7,3.5,5.9,4.8c3.5,1.8,11.7,1.7,11.7,1.7h33.4c0.3-0.1,0.7,0.1,0.9,0.3
			c0.3,0.6,0.5,1.3,0.6,2h266.2c0.1-0.7,0.3-1.4,0.6-2c0.2-0.2,0.6-0.3,0.9-0.3h33.4c0,0,8.2,0.2,11.7-1.7c2.2-1.2,4.2-2.8,5.9-4.8
			c0,0,8.8-5,53.7-5s62.3,5.7,62.3,5.7s4.1,5.3,4.7,8.6s10.1,16.3,10.1,16.3s21,30,33,65.7c4,11.9,7.7,37.2,17,64.9
			c14.3,42.1,29.1,129.1,32,144.6c3.9,20.9,4.6,77.3,4.7,88.3v-0.1c0,0-0.3-66.9-4.7-90.1c-2.9-15.5-17.7-102.5-32-144.6
			c-9.4-27.7-13.1-53-17-64.9c-12-35.7-33-65.7-33-65.7s-9.5-13.1-10.1-16.3s-4.7-8.6-4.7-8.6s-17.4-5.7-62.3-5.7s-53.7,5-53.7,5
			c-1.7,1.9-3.7,3.5-5.9,4.8c-3.5,1.8-11.7,1.7-11.7,1.7h-33.4c-0.3-0.1-0.7,0.1-0.9,0.3c-0.3,0.6-0.5,1.3-0.6,2H270
			c-0.1-0.7-0.3-1.4-0.6-2c-0.2-0.2-0.6-0.3-0.9-0.3h-33.4c0,0-8.2,0.2-11.7-1.7c-2.2-1.2-4.2-2.8-5.9-4.8c0,0-8.8-5-53.7-5
			s-62.3,5.7-62.3,5.7s-4.1,5.3-4.7,8.6c-0.6,3.3-10.1,16.3-10.1,16.3s-21,30-33,65.7c-4,11.9-7.7,37.2-17,64.9
			c-14.3,42.1-29.1,129.1-32,144.6C0.4,441.9,0,508.8,0,508.8v0.1c0.1-10.9,0.7-67.4,4.7-88.3C7.7,405.2,22.4,318.1,36.7,276z"/>
		<path class="st4" d="M351.3,360c0-42.2-34.3-76.5-76.5-76.5s-76.5,34.3-76.5,76.5c0,0.7,0,1.3,0.1,2c0,0.7-0.1,1.3-0.1,2
			c0,42.2,34.3,76.5,76.5,76.5s76.5-34.3,76.5-76.5c0-0.7,0-1.3-0.1-2C351.2,361.3,351.3,360.6,351.3,360z"/>
		<circle class="st5" cx="274.8" cy="356" r="73"/>
		<circle cx="274.8" cy="356" r="51.5"/>
		<path class="st4" d="M607.9,360c0-42.2-34.3-76.5-76.5-76.5s-76.5,34.3-76.5,76.5c0,0.7,0,1.3,0.1,2c0,0.7-0.1,1.3-0.1,2
			c0,42.2,34.3,76.5,76.5,76.5s76.5-34.3,76.5-76.5c0-0.7,0-1.3-0.1-2C607.9,361.3,607.9,360.7,607.9,360z"/>
		<circle class="st5" cx="531.4" cy="356" r="73"/>
		<circle cx="531.4" cy="356" r="51.5"/>
		<path class="st6" d="M534.9,128c-0.5-3.2-3.2-5.6-6.5-5.6H277.8c-3.3,0-6.1,2.4-6.5,5.6c-0.1,0.7-0.1,1.4-0.1,2.1v127.4
			c0,8.9,7.2,16.1,16.1,16.1c0,0,0,0,0,0h231.6c8.9,0,16.1-7.2,16.1-16.1c0,0,0,0,0,0V130.1C535.1,129.4,535,128.7,534.9,128z"/>
		<g>
			<path class="st7" d="M530.5,124.3c0-1-0.9-1.9-1.9-1.9l0,0H277.5c-1,0-1.9,0.9-1.9,1.9v129.2c0,8.6,7,15.6,15.6,15.6H515
				c8.6,0,15.6-7,15.6-15.6V130.4L530.5,124.3z"/>
			<g class="st8">
				
					<pattern  id="SVGID_00000005246795252928489500000017485557663098429860_" xlink:href="#SVGID_5_" patternTransform="matrix(0.1 0 0 -0.1 -21986.2598 -10311.4473)"  class="st8">
				</pattern>
				<path style="fill:url(#SVGID_00000005246795252928489500000017485557663098429860_);" d="M275.6,253.5c0,8.6,7,15.6,15.6,15.6
					H515c8.6,0,15.6-7,15.6-15.6V147H275.7v106.5H275.6z"/>
			</g>
		</g>
		<circle class="st7" cx="652.4" cy="244.8" r="94.3"/>
		<g>
			<circle class="st7" cx="153.8" cy="244.8" r="94.3"/>
			<path class="st10" d="M230.5,254.1l9.5-8.9c0.5-0.4,0.5-1.2,0.1-1.6c0,0,0-0.1-0.1-0.1l-9.5-8.9c-0.4-0.4-1.2-0.4-1.6,0
				c-0.2,0.2-0.3,0.5-0.3,0.8v17.8c0,0.6,0.5,1.2,1.1,1.2C230,254.4,230.3,254.3,230.5,254.1z"/>
			<path class="st10" d="M145.1,169.8h17.8c0.6,0,1.1-0.5,1.1-1.1c0-0.3-0.1-0.6-0.3-0.8l-8.9-9.5c-0.4-0.5-1.2-0.5-1.6-0.1
				c0,0-0.1,0-0.1,0.1l-8.9,9.5c-0.4,0.5-0.3,1.2,0.2,1.6C144.6,169.7,144.8,169.8,145.1,169.8z"/>
			<path class="st10" d="M77.6,234.6l-9.5,8.9c-0.5,0.4-0.5,1.2-0.1,1.6c0,0,0,0.1,0.1,0.1l9.5,8.9c0.4,0.4,1.2,0.4,1.6,0
				c0.2-0.2,0.3-0.5,0.3-0.8v-17.8c0-0.6-0.5-1.2-1.1-1.2C78.1,234.3,77.8,234.4,77.6,234.6z"/>
			<path class="st10" d="M162.9,318.8h-17.8c-0.6,0-1.1,0.5-1.1,1.1c0,0.3,0.1,0.6,0.3,0.8l8.9,9.5c0.4,0.5,1.2,0.5,1.6,0.1
				c0,0,0.1,0,0.1-0.1l8.9-9.5c0.4-0.5,0.3-1.2-0.2-1.6C163.4,318.9,163.2,318.8,162.9,318.8z"/>
		</g>
	</g>
	<g>
		<g>
			<path class="st7" d="M547.7,134.6c-0.2,2.3-2.1,4-4.4,3.8c-2-0.1-3.7-1.8-3.8-3.8c0-2.1,1.7-3.8,3.8-3.8c0.1,0,0.2,0,0.3,0
				c2.1-0.2,3.9,1.3,4.1,3.4C547.7,134.3,547.7,134.5,547.7,134.6z M541,134.6c-0.1,1.4,0.9,2.6,2.3,2.7c0.1,0,0.2,0,0.3,0
				c1.4,0,2.6-1.1,2.6-2.5c0-0.1,0-0.2,0-0.2c0-1.4-1.2-2.6-2.6-2.6C542.2,132,541,133.2,541,134.6L541,134.6L541,134.6z"/>
			<path class="st7" d="M549,131h3.8c2.4,0,2.9,1.3,2.9,2.2s-0.5,2.2-2.9,2.2h-2.3v2.8H549V131z M550.5,134.4h2.2
				c0.7,0,1.5-0.3,1.5-1.2s-0.7-1.2-1.5-1.2h-2.2V134.4z"/>
			<path class="st7" d="M556.2,131h6.9v1.1h-2.7v6.1h-1.5v-6.1h-2.7V131z"/>
			<path class="st7" d="M564.2,131h1.5v7.2h-1.5V131z"/>
			<path class="st7" d="M575.2,134.6c-0.2,2.3-2.1,4-4.4,3.8c-2-0.1-3.7-1.8-3.8-3.8c0-2.1,1.7-3.8,3.8-3.8c0.1,0,0.2,0,0.3,0
				c2.1-0.2,3.9,1.3,4.1,3.4C575.2,134.3,575.2,134.5,575.2,134.6z M568.5,134.6c-0.1,1.4,0.9,2.6,2.3,2.7c0.1,0,0.2,0,0.3,0
				c1.4,0,2.6-1.1,2.6-2.5c0-0.1,0-0.2,0-0.2c0-1.4-1.2-2.6-2.6-2.6C569.7,132,568.5,133.2,568.5,134.6L568.5,134.6L568.5,134.6z"/>
			<path class="st7" d="M576.6,131h1.5l3.9,5.3l0,0V131h1.4v7.2h-1.6l-3.9-5.3l0,0v5.3h-1.4L576.6,131L576.6,131z"/>
			<path class="st7" d="M586.3,135.8c0,1.1,1,1.5,2.2,1.5s1.8-0.6,1.8-1.1c0-0.4-0.3-0.8-0.7-0.9c-0.6-0.2-1.4-0.3-2.6-0.6
				c-1.5-0.3-1.9-1.1-1.9-1.8c0-1.5,1.6-2.1,3.1-2.1c1.8,0,3.3,0.8,3.3,2.3H590c-0.1-0.9-0.8-1.3-1.8-1.3c-0.7,0-1.6,0.2-1.6,0.9
				c0,0.5,0.4,0.8,1,0.9c0.8,0.1,1.7,0.4,2.5,0.6c0.9,0.2,1.6,0.9,1.7,1.8c0,1.6-1.7,2.3-3.4,2.3c-2,0-3.5-0.8-3.6-2.6h1.5V135.8z"
				/>
		</g>
		<g>
			<path class="st7" d="M222.3,135.8c0,1.1,1,1.5,2.2,1.5s1.8-0.6,1.8-1.1c0-0.4-0.3-0.8-0.7-0.9c-0.6-0.2-1.4-0.3-2.6-0.6
				c-1.5-0.3-1.9-1.1-1.9-1.8c0-1.5,1.6-2.1,3.1-2.1c1.8,0,3.3,0.8,3.3,2.3H226c-0.1-0.9-0.8-1.3-1.8-1.3c-0.7,0-1.6,0.2-1.6,0.9
				c0,0.5,0.4,0.8,1,0.9c0.8,0.1,1.7,0.4,2.5,0.6c0.9,0.2,1.6,0.9,1.7,1.8c0,1.6-1.7,2.3-3.4,2.3c-2,0-3.5-0.8-3.6-2.6h1.5V135.8z"
				/>
			<path class="st7" d="M229,131h1.5v2.9h3.9V131h1.5v7.2h-1.5v-3.3h-3.9v3.2H229V131z"/>
			<path class="st7" d="M240,131h1.6l3.3,7.2h-1.6l-0.8-1.9h-3.4l-0.8,1.9h-1.5L240,131z M239.5,135.3h2.6l-1.3-3.1l0,0L239.5,135.3
				z"/>
			<path class="st7" d="M245.7,131h4.1c1.9,0,2.8,0.7,2.8,1.9c0,0.9-0.6,1.6-1.4,1.8l0,0c0.8,0.1,1.3,0.7,1.3,1.5
				c0,0.8,0.1,1.6,0.5,1.9h-1.6c-0.2-0.3-0.2-0.7-0.2-1.1c0-1.3-0.3-1.9-1.7-1.9h-2.2v3h-1.5L245.7,131L245.7,131z M247.2,134.2h2.5
				c1,0,1.5-0.4,1.5-1.1c0-0.9-0.7-1.1-1.5-1.1h-2.4v2.2L247.2,134.2z"/>
			<path class="st7" d="M254.2,131h6.2v1.1h-4.7v1.9h4.3v1h-4.3v2.1h4.7v1.1h-6.2L254.2,131z"/>
		</g>
	</g>
	<g>
		<g>
			
				<linearGradient id="SVGID_00000147193152501238716190000009011717177819939205_" gradientUnits="userSpaceOnUse" x1="647.85" y1="94.4" x2="647.85" y2="109.9">
				<stop  offset="0.4581" style="stop-color:#950AFF"/>
				<stop  offset="1" style="stop-color:#150D59"/>
			</linearGradient>
			<path style="fill:url(#SVGID_00000147193152501238716190000009011717177819939205_);" d="M697.3,109.9c0-0.8-0.4-1.5-1.1-1.9
				c-4.5-2.9-23.4-13.6-51.5-13.6c-26.9,0-41.1,5.9-45.1,8c-0.7,0.4-1.2,1.2-1.2,2c0,0,9.8-2.9,47.5-2.9S697.3,109.9,697.3,109.9z"
				/>
			
				<linearGradient id="SVGID_00000020397735937308401820000008987998396093565852_" gradientUnits="userSpaceOnUse" x1="647.7499" y1="101.5" x2="647.7499" y2="116.8">
				<stop  offset="0.4581" style="stop-color:#950AFF"/>
				<stop  offset="1" style="stop-color:#150D59"/>
			</linearGradient>
			<path style="fill:url(#SVGID_00000020397735937308401820000008987998396093565852_);" d="M697.2,116.8L697.2,116.8v-6.9
				c0,0-13.7-8.4-51.4-8.4s-47.5,2.9-47.5,2.9v11l0,0c7.7-1.3,21.2-2.6,44.1-2.6C670.9,112.9,688.3,115.2,697.2,116.8z"/>
		</g>
		<g>
			
				<linearGradient id="SVGID_00000067195765166873048520000015970495435083220141_" gradientUnits="userSpaceOnUse" x1="158.3501" y1="94.4" x2="158.3501" y2="109.9">
				<stop  offset="0.4581" style="stop-color:#950AFF"/>
				<stop  offset="1" style="stop-color:#150D59"/>
			</linearGradient>
			<path style="fill:url(#SVGID_00000067195765166873048520000015970495435083220141_);" d="M108.9,109.9c0-0.8,0.4-1.5,1.1-1.9
				c4.5-2.9,23.4-13.6,51.5-13.6c26.9,0,41.1,5.9,45.1,8c0.7,0.4,1.2,1.2,1.2,2c0,0-9.8-2.9-47.5-2.9S108.9,109.9,108.9,109.9z"/>
			
				<linearGradient id="SVGID_00000034060886998011291050000000968410678845392812_" gradientUnits="userSpaceOnUse" x1="158.45" y1="101.5" x2="158.45" y2="116.8">
				<stop  offset="0.4581" style="stop-color:#950AFF"/>
				<stop  offset="1" style="stop-color:#150D59"/>
			</linearGradient>
			<path style="fill:url(#SVGID_00000034060886998011291050000000968410678845392812_);" d="M109,116.8L109,116.8v-6.9
				c0,0,13.7-8.4,51.4-8.4s47.5,2.9,47.5,2.9v11l0,0c-7.7-1.3-21.2-2.6-44.1-2.6C135.3,112.9,117.9,115.2,109,116.8z"/>
		</g>
	</g>
	<g>
		<g>
			<g>
				<path class="st15" d="M710,271c-14.5,0-26.3-11.8-26.3-26.3s11.8-26.3,26.3-26.3c14.5,0,26.3,11.8,26.3,26.3l0,0
					C736.3,259.2,724.5,271,710,271z"/>
				<path class="st16" d="M710,219.5c14,0,25.3,11.3,25.3,25.3S724,270.1,710,270.1c-14,0-25.3-11.3-25.3-25.3c0,0,0,0,0,0
					C684.7,230.8,696,219.5,710,219.5 M710,217.5c-15.1,0-27.3,12.2-27.3,27.3c0,15.1,12.2,27.3,27.3,27.3
					c15.1,0,27.3-12.2,27.3-27.3c0,0,0,0,0,0C737.3,229.7,725.1,217.5,710,217.5z"/>
			</g>
			
				<linearGradient id="SVGID_00000156558964596090319390000014494524498424441252_" gradientUnits="userSpaceOnUse" x1="710.0001" y1="225.9" x2="710.0001" y2="263.7">
				<stop  offset="0.4581" style="stop-color:#950AFF"/>
				<stop  offset="1" style="stop-color:#150D59"/>
			</linearGradient>
			<path style="fill:url(#SVGID_00000156558964596090319390000014494524498424441252_);" d="M710,225.9c-10.4,0-18.9,8.5-18.9,18.9
				s8.5,18.9,18.9,18.9c10.4,0,18.9-8.5,18.9-18.9C728.9,234.4,720.4,225.9,710,225.9z M710,260.8c-8.8,0-16-7.2-16-16s7.2-16,16-16
				s16,7.2,16,16S718.8,260.8,710,260.8z"/>
		</g>
		<g>
			<g>
				<path class="st15" d="M652.4,328.6c-14.5,0-26.3-11.8-26.3-26.3s11.8-26.3,26.3-26.3s26.3,11.8,26.3,26.3c0,0,0,0,0,0
					C678.7,316.8,666.9,328.6,652.4,328.6z"/>
				<path class="st16" d="M652.4,277.1c14,0,25.3,11.3,25.3,25.3s-11.3,25.3-25.3,25.3c-14,0-25.3-11.3-25.3-25.3v0
					C627.1,288.4,638.4,277.1,652.4,277.1 M652.4,275.1c-15.1,0-27.3,12.2-27.3,27.3s12.2,27.3,27.3,27.3
					c15.1,0,27.3-12.2,27.3-27.3v0C679.7,287.3,667.5,275.1,652.4,275.1z"/>
			</g>
			<polygon class="st18" points="666.8,290 664.8,288 652.4,300.4 640.1,288 638.1,290 650.4,302.4 638.1,314.7 640.1,316.8 
				652.4,304.4 664.8,316.8 666.8,314.7 654.4,302.4 			"/>
		</g>
		<g>
			<g>
				<path class="st15" d="M594.9,271c-14.5,0.1-26.3-11.7-26.4-26.2c-0.1-14.5,11.7-26.3,26.2-26.4s26.3,11.7,26.4,26.2
					c0,0.1,0,0.1,0,0.2C621,259.2,609.3,270.9,594.9,271z"/>
				<path class="st16" d="M594.8,219.5c14,0,25.3,11.3,25.3,25.3s-11.3,25.3-25.3,25.3c-14,0-25.3-11.3-25.3-25.3c0,0,0,0,0,0
					C569.5,230.8,580.8,219.5,594.8,219.5 M594.8,217.5c-15.1,0-27.3,12.2-27.3,27.3c0,15.1,12.2,27.3,27.3,27.3
					c15.1,0,27.3-12.2,27.3-27.3c0,0,0,0,0,0C622.1,229.7,609.9,217.5,594.8,217.5z"/>
			</g>
			<path class="st19" d="M606.4,230.4h-25.8V259h28.6v-28.6H606.4z M606.4,256.3h-23v-23h23V256.3z"/>
		</g>
		<g>
			<g>
				<path class="st15" d="M652.4,213.5c-14.5,0-26.3-11.8-26.3-26.3s11.8-26.3,26.3-26.3c14.5,0,26.3,11.8,26.3,26.3l0,0
					C678.7,201.7,666.9,213.5,652.4,213.5z"/>
				<path class="st16" d="M652.4,162c14,0,25.3,11.3,25.3,25.3s-11.3,25.3-25.3,25.3c-14,0-25.3-11.3-25.3-25.3c0,0,0,0,0,0
					C627.1,173.3,638.4,162,652.4,162 M652.4,160c-15.1,0-27.3,12.2-27.3,27.3s12.2,27.3,27.3,27.3c15.1,0,27.3-12.2,27.3-27.3
					c0,0,0,0,0,0C679.7,172.2,667.5,160,652.4,160z"/>
			</g>
			<path class="st20" d="M668.4,195.2l-16-27.6l-16,27.6l-1.6,2.8H670L668.4,195.2z M652.4,195.2h-12.7l12.7-21.9l12.7,21.9H652.4z"
				/>
		</g>
	</g>
	<g>
		<g>
			<circle cx="403.1" cy="316.4" r="4.1"/>
			<circle cx="403.1" cy="295.5" r="4.1"/>
			<circle cx="396.2" cy="305.7" r="4.1"/>
			<circle cx="381.5" cy="305.7" r="4.1"/>
			<circle cx="388.8" cy="316.4" r="4.1"/>
			<circle cx="388.8" cy="295.5" r="4.1"/>
			<circle cx="374.5" cy="295.5" r="4.1"/>
		</g>
		<g>
			<circle cx="410" cy="305.7" r="4.1"/>
			<circle cx="424.7" cy="305.7" r="4.1"/>
			<circle cx="417.3" cy="316.4" r="4.1"/>
			<circle cx="417.3" cy="295.5" r="4.1"/>
			<circle cx="431.7" cy="295.5" r="4.1"/>
		</g>
	</g>
	<g>
		<circle class="st21" cx="403.1" cy="362" r="20.2"/>
		<g>
			<path class="st22" d="M404.2,368.6v-12.8c0-0.4,0.1-0.7,0.3-1c0.2-0.2,0.4-0.3,0.7-0.2c0.6,0.2,0.9,0.7,0.9,1.7v6.9
				c0.6,0.3,1.4,0.5,2.1,0.5c0.6,0,1.1-0.2,1.6-0.5c1-0.7,1.5-1.9,1.5-3.7c0.1-1.5-0.3-3.1-1.2-4.3c-1.1-1.2-2.5-2.1-4.1-2.6
				c-1.3-0.4-2.5-0.8-3.6-1.1s-2-0.5-2.9-0.7V363l0,0v2.7l0,0v1.7l0,0v2.5l0,0v1.5l4.7,1.5v-3.6l0,0V368.6z"/>
			<path class="st22" d="M399.1,367.6l-1.7,0.6l-0.9,0.4l-1.6,0.3l-1.5-0.2c-0.3-0.2-0.4-0.4-0.2-0.6s0.2-0.1,0.3-0.2
				s0.3-0.1,0.4-0.2l1.1-0.4l4.1-1.5v-2.7l-1.7,0.5l-5.5,2l-1,0.4c-1.5,0.6-2.2,1.2-2.2,1.8c0.1,0.8,1,1.5,2.7,1.9
				c1.4,0.4,2.9,0.5,4.3,0.5c1.1,0,2.2-0.1,3.3-0.3L399.1,367.6L399.1,367.6z"/>
			<path class="st22" d="M414.9,365.3c-0.8-0.3-1.6-0.5-2.5-0.6c-0.8-0.1-1.7-0.2-2.5-0.1c-0.9,0.1-1.9,0.2-2.8,0.3
				c-0.9,0.2-1.8,0.5-2.6,0.8v2.8l3.9-1.4l1.6-0.5l1.1-0.3h1.4c0.3,0.1,0.6,0.2,0.7,0.4s-0.2,0.4-0.8,0.6l-1.4,0.5l-6.5,2.4v2.7
				l3.5-1.3l6.4-2.3l0.7-0.4c1.5-0.5,2.2-1.2,2.2-1.9S416.5,365.8,414.9,365.3z"/>
		</g>
	</g>
	
		<linearGradient id="SVGID_00000124845228288702153630000008479330684612689545_" gradientUnits="userSpaceOnUse" x1="82.5" y1="482.5" x2="82.5" y2="598.9667">
		<stop  offset="0.4581" style="stop-color:#950AFF"/>
		<stop  offset="1" style="stop-color:#150D59"/>
	</linearGradient>
	<path style="fill:url(#SVGID_00000124845228288702153630000008479330684612689545_);" d="M105.3,544.5
		C64.8,541.7,29.5,524.2,18,514S0.5,482.5,0.5,482.5c-0.4,15-0.4,26.3-0.4,26.3s4.5,53.4,36.2,74.9s56.7,14,56.7,14
		s33.1-8.2,57.8-41.9c5.3-7.6,10-15.5,14.1-23.8C164.8,531.9,145.7,547.2,105.3,544.5z"/>
	
		<linearGradient id="SVGID_00000106144604983473315840000004830710936311876515_" gradientUnits="userSpaceOnUse" x1="723.7" y1="482.5" x2="723.7" y2="598.9667">
		<stop  offset="0.4581" style="stop-color:#950AFF"/>
		<stop  offset="1" style="stop-color:#150D59"/>
	</linearGradient>
	<path style="fill:url(#SVGID_00000106144604983473315840000004830710936311876515_);" d="M700.9,544.5
		c40.5-2.8,75.8-20.3,87.3-30.5s17.5-31.5,17.5-31.5c0.4,15,0.4,26.3,0.4,26.3s-4.5,53.4-36.2,74.9s-56.7,14-56.7,14
		s-33.1-8.2-57.8-41.9c-5.3-7.6-10-15.5-14.1-23.8C641.4,531.9,660.5,547.2,700.9,544.5z"/>
	<g>
		<g>
			<path class="st25" d="M105.3,544.5C64.8,541.7,29.5,524.2,18,514S0.5,482.5,0.5,482.5c-0.4,15-0.4,26.3-0.4,26.3
				s4.5,53.4,36.2,74.9s56.7,14,56.7,14s33.1-8.2,57.8-41.9c5.3-7.6,10-15.5,14.1-23.8C164.8,531.9,145.7,547.2,105.3,544.5z"/>
			
				<pattern  id="SVGID_00000065787849435196994760000015550085480334782126_" xlink:href="#SVGID_6_" patternTransform="matrix(0.3268 9.371670e-02 9.371670e-02 -0.3268 -15610.3291 -16896.752)">
			</pattern>
			
				<path style="opacity:8.000000e-02;fill:url(#SVGID_00000065787849435196994760000015550085480334782126_);enable-background:new    ;" d="
				M105.3,544.5C64.8,541.7,29.5,524.2,18,514S0.5,482.5,0.5,482.5c-0.4,15-0.4,26.3-0.4,26.3s4.5,53.4,36.2,74.9s56.7,14,56.7,14
				s33.1-8.2,57.8-41.9c5.3-7.6,10-15.5,14.1-23.8C164.8,531.9,145.7,547.2,105.3,544.5z"/>
			<path class="st27" d="M90.1,592.5c-12.5,1.8-31.3-2-45.1-7.7c-13.6-5.7-24-16.4-24-16.4c4.2,5.9,9.4,11,15.3,15.2
				c31.7,21.5,56.7,14,56.7,14s11.7-2.9,26.3-12.3C109.8,588.6,100,591,90.1,592.5z"/>
		</g>
		<g>
			<path class="st25" d="M700.9,544.5c40.5-2.8,75.8-20.3,87.3-30.5s17.5-31.5,17.5-31.5c0.4,15,0.4,26.3,0.4,26.3
				s-4.5,53.4-36.2,74.9s-56.7,14-56.7,14s-33.1-8.2-57.8-41.9c-5.3-7.6-10-15.5-14.1-23.8C641.4,531.9,660.5,547.2,700.9,544.5z"/>
			
				<pattern  id="SVGID_00000049184255109521774340000012558779727056769685_" xlink:href="#SVGID_7_" patternTransform="matrix(-0.33 9.000000e-02 -9.000000e-02 -0.33 -33258.918 -16997.1309)">
			</pattern>
			
				<path style="opacity:8.000000e-02;fill:url(#SVGID_00000049184255109521774340000012558779727056769685_);enable-background:new    ;" d="
				M700.9,544.5c40.5-2.8,75.8-20.3,87.3-30.5s17.5-31.5,17.5-31.5c0.4,15,0.4,26.3,0.4,26.3s-4.5,53.4-36.2,74.9s-56.7,14-56.7,14
				s-33.1-8.2-57.8-41.9c-5.3-7.6-10-15.5-14.1-23.8C641.4,531.9,660.5,547.2,700.9,544.5z"/>
			<path class="st27" d="M716.1,592.5c12.5,1.8,31.3-2,45.1-7.7c13.6-5.7,24-16.4,24-16.4c-4.2,5.9-9.4,11-15.3,15.2
				c-31.7,21.5-56.7,14-56.7,14s-11.7-2.9-26.3-12.3C696.4,588.6,706.2,591,716.1,592.5z"/>
		</g>
		<g>
			<path d="M240.6,143.5c6.9,0,12.5,5.6,12.5,12.5v18.3c0,6.9-5.6,12.5-12.5,12.5s-12.5-5.6-12.5-12.5V156
				C228.1,149.1,233.7,143.5,240.6,143.5 M240.6,141.8c-7.8,0-14.2,6.4-14.2,14.2v18.3c0,7.8,6.4,14.2,14.2,14.2
				c7.8,0,14.2-6.4,14.2-14.2V156C254.8,148.2,248.5,141.8,240.6,141.8C240.6,141.8,240.6,141.8,240.6,141.8z"/>
			
				<linearGradient id="SVGID_00000041258063879613339460000003369917578953299126_" gradientUnits="userSpaceOnUse" x1="240.6" y1="143.5" x2="240.6" y2="186.8">
				<stop  offset="0.4581" style="stop-color:#950AFF"/>
				<stop  offset="1" style="stop-color:#150D59"/>
			</linearGradient>
			<path style="fill:url(#SVGID_00000041258063879613339460000003369917578953299126_);" d="M240.6,143.5c-6.9,0-12.5,5.6-12.5,12.5
				v18.3c0,6.9,5.6,12.5,12.5,12.5s12.5-5.6,12.5-12.5V156C253.1,149.1,247.5,143.5,240.6,143.5z"/>
		</g>
		<g>
			<path d="M565.6,143.5c6.9,0,12.5,5.6,12.5,12.5v18.3c0,6.9-5.6,12.5-12.5,12.5l0,0l0,0c-6.9,0-12.5-5.6-12.5-12.5l0,0V156
				C553.1,149.1,558.7,143.5,565.6,143.5L565.6,143.5 M565.6,141.8c-7.8,0-14.2,6.4-14.2,14.2v18.3c0,7.8,6.4,14.2,14.2,14.2
				s14.2-6.4,14.2-14.2l0,0V156C579.8,148.2,573.5,141.8,565.6,141.8C565.6,141.8,565.6,141.8,565.6,141.8z"/>
			
				<linearGradient id="SVGID_00000089542175290710101230000001408870728705015207_" gradientUnits="userSpaceOnUse" x1="565.6" y1="143.5" x2="565.6" y2="186.8">
				<stop  offset="0.4581" style="stop-color:#950AFF"/>
				<stop  offset="1" style="stop-color:#150D59"/>
			</linearGradient>
			<path style="fill:url(#SVGID_00000089542175290710101230000001408870728705015207_);" d="M565.6,143.5c-6.9,0-12.5,5.6-12.5,12.5
				v18.3c0,6.9,5.6,12.5,12.5,12.5s12.5-5.6,12.5-12.5V156C578.1,149.1,572.5,143.5,565.6,143.5z"/>
		</g>
		<g>
			<g>
				
					<linearGradient id="SVGID_00000160888676202774412040000002680073338553402266_" gradientUnits="userSpaceOnUse" x1="117.0505" y1="226.5817" x2="117.0505" y2="262.0183">
					<stop  offset="0.4581" style="stop-color:#950AFF"/>
					<stop  offset="1" style="stop-color:#150D59"/>
				</linearGradient>
				<path style="fill:url(#SVGID_00000160888676202774412040000002680073338553402266_);" d="M141.3,247.2c1.4-2,1.2-2.9,1.2-2.9
					s0.2-0.9-1.2-2.9s-15-13.6-15.7-14s-28.5-2.2-31.4,1.3s-2.6,15.6-2.6,15.6s-0.3,12.1,2.6,15.6s30.7,1.7,31.4,1.3
					S139.9,249.2,141.3,247.2z"/>
				<path class="st32" d="M141.3,247.2c1.4-2,1.2-2.9,1.2-2.9s0.2-0.9-1.2-2.9c-0.9-1.3-6.9-6.6-11.2-10.3
					c-2.2,4.1-3.4,8.6-3.4,13.2c0,4.6,1.1,9.2,3.4,13.2C134.4,253.8,140.4,248.5,141.3,247.2z"/>
			</g>
			<g>
				
					<linearGradient id="SVGID_00000067206888277748250490000016189986952318109359_" gradientUnits="userSpaceOnUse" x1="154" y1="181.8912" x2="154" y2="232.8099">
					<stop  offset="0.4581" style="stop-color:#950AFF"/>
					<stop  offset="1" style="stop-color:#150D59"/>
				</linearGradient>
				<path style="fill:url(#SVGID_00000067206888277748250490000016189986952318109359_);" d="M151.1,231.6c2,1.4,2.9,1.2,2.9,1.2
					s0.9,0.2,2.9-1.2s13.6-15,14-15.7s2.2-28.5-1.3-31.4s-15.6-2.6-15.6-2.6s-12.1-0.3-15.6,2.6s-1.7,30.7-1.3,31.4
					S149.1,230.2,151.1,231.6z"/>
				<path class="st32" d="M151.1,231.6c2,1.4,2.9,1.2,2.9,1.2s0.9,0.2,2.9-1.2c1.3-0.9,6.6-6.9,10.3-11.2c-4.1-2.2-8.6-3.4-13.2-3.4
					c-4.6,0-9.2,1.1-13.2,3.4C144.6,224.7,149.8,230.7,151.1,231.6z"/>
			</g>
			<g>
				
					<linearGradient id="SVGID_00000127753825236072368200000012780350445963840915_" gradientUnits="userSpaceOnUse" x1="190.9495" y1="226.6817" x2="190.9495" y2="262.1183">
					<stop  offset="0.4581" style="stop-color:#950AFF"/>
					<stop  offset="1" style="stop-color:#150D59"/>
				</linearGradient>
				<path style="fill:url(#SVGID_00000127753825236072368200000012780350445963840915_);" d="M213.8,228.8
					c-2.9-3.5-30.7-1.7-31.4-1.3s-14.3,12-15.7,14s-1.2,2.9-1.2,2.9s-0.2,0.9,1.2,2.9s15,13.6,15.7,14s28.5,2.2,31.4-1.3
					s2.6-15.6,2.6-15.6S216.7,232.3,213.8,228.8z"/>
				<path class="st32" d="M178,231.2c-4.3,3.7-10.3,9-11.2,10.3c-1.4,2-1.2,2.9-1.2,2.9s-0.2,0.9,1.2,2.9c0.9,1.3,6.9,6.6,11.2,10.3
					C182.5,249.4,182.5,239.4,178,231.2L178,231.2z"/>
			</g>
			<g>
				
					<linearGradient id="SVGID_00000060002021520188534620000015133783056559445407_" gradientUnits="userSpaceOnUse" x1="154" y1="255.8901" x2="154" y2="306.8088">
					<stop  offset="0.4581" style="stop-color:#950AFF"/>
					<stop  offset="1" style="stop-color:#150D59"/>
				</linearGradient>
				<path style="fill:url(#SVGID_00000060002021520188534620000015133783056559445407_);" d="M156.9,257.1c-2-1.4-2.9-1.2-2.9-1.2
					s-0.9-0.2-2.9,1.2s-13.6,15-14,15.7s-2.2,28.5,1.3,31.4s15.6,2.6,15.6,2.6s12.1,0.3,15.6-2.6s1.7-30.7,1.3-31.4
					S158.9,258.5,156.9,257.1z"/>
				<path class="st32" d="M156.9,257.1c-2-1.4-2.9-1.2-2.9-1.2s-0.9-0.2-2.9,1.2c-1.3,0.9-6.6,6.9-10.3,11.2
					c4.1,2.2,8.6,3.4,13.2,3.4c4.6,0,9.2-1.1,13.2-3.4C163.5,264,158.2,258,156.9,257.1z"/>
			</g>
		</g>
	</g>
	<path class="st36" d="M436.7,421h-67.9c-2.8,0-4.6,0.6-4.6-2.2l0,0c0-2.8,2.2-5,5-5h67.9c2.8,0,5,2.2,5,5l0,0
		C442.2,421.5,439.5,421,436.7,421z"/>
	<path d="M408.4,418.8h-36.5c-0.5,0-0.9-0.4-0.9-0.9l0,0c0-1.1,0.9-2,2-2h34.2c1.1,0,2,0.9,2,2l0,0c0.1,0.4-0.2,0.8-0.6,0.9
		C408.5,418.8,408.5,418.8,408.4,418.8z"/>
	<path d="M430.6,419.6h-4.2c-0.9,0-1.7-0.8-1.7-1.7l0,0c0-1.5,1.3-2.8,2.8-2.8h1.9c1.5,0,2.8,1.3,2.8,2.8l0,0
		c0.1,0.8-0.5,1.6-1.3,1.7C430.8,419.6,430.7,419.6,430.6,419.6z"/>
	<g>
		
			<linearGradient id="SVGID_00000157277979737047283500000016555541064285082773_" gradientUnits="userSpaceOnUse" x1="403.1145" y1="122.3995" x2="403.1145" y2="273.6">
			<stop  offset="0.4581" style="stop-color:#950AFF"/>
			<stop  offset="1" style="stop-color:#150D59"/>
		</linearGradient>
		<path style="fill:url(#SVGID_00000157277979737047283500000016555541064285082773_);" d="M534.9,128c-0.5-3.2-3.2-5.6-6.5-5.6
			H277.8c-3.3,0-6.1,2.4-6.5,5.6c-0.1,0.7-0.1,1.4-0.1,2.1v127.4c0,8.9,7.2,16.1,16.1,16.1c0,0,0,0,0,0h231.6
			c8.9,0,16.1-7.2,16.1-16.1c0,0,0,0,0,0V130.1C535.1,129.4,535,128.7,534.9,128z"/>
		<g>
			
				<linearGradient id="SVGID_00000051369687647201783390000004419898443612590257_" gradientUnits="userSpaceOnUse" x1="403.1" y1="122.4" x2="403.1" y2="269.1">
				<stop  offset="0.4581" style="stop-color:#950AFF"/>
				<stop  offset="1" style="stop-color:#150D59"/>
			</linearGradient>
			<path style="fill:url(#SVGID_00000051369687647201783390000004419898443612590257_);" d="M530.5,124.3c0-1-0.9-1.9-1.9-1.9l0,0
				H277.5c-1,0-1.9,0.9-1.9,1.9v129.2c0,8.6,7,15.6,15.6,15.6H515c8.6,0,15.6-7,15.6-15.6V130.4L530.5,124.3z"/>
			<g class="st39">
				
					<pattern  id="SVGID_00000049916223226844331280000012262555943739603135_" xlink:href="#SVGID_8_" patternTransform="matrix(0.1 0 0 -0.1 -21986.2598 -10311.4473)"  class="st39">
				</pattern>
				<path style="fill:url(#SVGID_00000049916223226844331280000012262555943739603135_);" d="M275.6,253.5c0,8.6,7,15.6,15.6,15.6
					H515c8.6,0,15.6-7,15.6-15.6V147H275.7v106.5H275.6z"/>
			</g>
		</g>
	</g>
</g>
<g>
	<g>
		<g>
			
				<linearGradient id="SVGID_00000125583287978739322020000001083568843974096523_" gradientUnits="userSpaceOnUse" x1="647.75" y1="0" x2="647.75" y2="90.8">
				<stop  offset="0.4581" style="stop-color:#950AFF"/>
				<stop  offset="1" style="stop-color:#150D59"/>
			</linearGradient>
			<path style="fill:url(#SVGID_00000125583287978739322020000001083568843974096523_);" d="M697.2,90.8c0,0-32.7-3.2-50.6-3.2
				S598.3,90,598.3,90s3.1-44.7,4.8-52s7.7-21.3,16.9-27.9S632,0,642.8,0s25.4,6.4,34.6,21.4S697.2,90.8,697.2,90.8z"/>
			
				<linearGradient id="SVGID_00000039100664599407786840000006221714849348268433_" gradientUnits="userSpaceOnUse" x1="647.85" y1="78.8" x2="647.85" y2="90.8">
				<stop  offset="0.4581" style="stop-color:#950AFF"/>
				<stop  offset="1" style="stop-color:#150D59"/>
			</linearGradient>
			<path style="fill:url(#SVGID_00000039100664599407786840000006221714849348268433_);" d="M598.8,83.2c0,0,26.1-4.4,49-4.4
				s47.9,4.4,47.9,4.4c1,4.7,1.6,7.6,1.6,7.6s-32.7-3.2-50.6-3.2S598.4,90,598.4,90S598.4,87.3,598.8,83.2z"/>
		</g>
		<g class="st43">
			<path class="st2" d="M648.8,65.7l-3.2,2.6c-1.2,1.2-1.9,2.8-2,4.5h9.8v-2.6h-6.3c0.6-0.8,1.3-1.4,2.1-1.9c1-0.6,1.9-1.3,2.7-2.1
				c0.8-0.9,1.3-2.1,1.3-3.3c0-1.3-0.5-2.5-1.4-3.3c-1-0.8-2.2-1.2-3.5-1.2c-3.1,0-4.7,1.7-4.7,5h2.7c0-1.8,0.7-2.7,2.1-2.7
				c1-0.1,1.9,0.6,2,1.6c0,0.2,0,0.3,0,0.5C650.4,64,649.8,65.1,648.8,65.7z"/>
			<path class="st2" d="M631.2,67.2h3c1.5,0,2.3,0.6,2.4,1.9s0.2,2.5,0.3,3.8h3.3v-0.4c-0.5-0.2-0.7-0.7-0.7-1.5
				c0-0.3,0-0.5,0.1-0.8v-0.7c0.2-1.4-0.6-2.8-1.8-3.5c1.4-0.5,2.3-1.9,2.2-3.4c0.1-1.2-0.4-2.3-1.3-3c-0.9-0.7-2-1.1-3.2-1h-7.3
				v14.3h3V67.2z M631.2,60.9h3.7c1.4,0,2.1,0.6,2.1,1.9c0,1.3-0.8,1.9-2.3,1.9h-3.5V60.9z"/>
		</g>
	</g>
	<g>
		<g>
			
				<linearGradient id="SVGID_00000167366652836480690960000000409883536412848564_" gradientUnits="userSpaceOnUse" x1="158.35" y1="0" x2="158.35" y2="90.8">
				<stop  offset="0.4581" style="stop-color:#950AFF"/>
				<stop  offset="1" style="stop-color:#150D59"/>
			</linearGradient>
			<path style="fill:url(#SVGID_00000167366652836480690960000000409883536412848564_);" d="M108.9,90.8c0,0,32.7-3.2,50.6-3.2
				s48.3,2.4,48.3,2.4s-3.1-44.7-4.8-52s-7.7-21.3-16.9-27.9S174.1,0,163.3,0s-25.4,6.4-34.6,21.4S108.9,90.8,108.9,90.8z"/>
			
				<linearGradient id="SVGID_00000098926494345535673800000016205215393398139578_" gradientUnits="userSpaceOnUse" x1="158.25" y1="78.8" x2="158.25" y2="90.8">
				<stop  offset="0.4581" style="stop-color:#950AFF"/>
				<stop  offset="1" style="stop-color:#150D59"/>
			</linearGradient>
			<path style="fill:url(#SVGID_00000098926494345535673800000016205215393398139578_);" d="M207.3,83.2c0,0-26.1-4.4-49-4.4
				s-47.9,4.4-47.9,4.4c-1,4.7-1.6,7.6-1.6,7.6s32.7-3.2,50.6-3.2s48.3,2.4,48.3,2.4S207.7,87.3,207.3,83.2z"/>
		</g>
		<g class="st43">
			<path class="st2" d="M173.4,65.7l-3.2,2.6c-1.2,1.2-1.9,2.8-2,4.5h9.8v-2.6h-6.2c0.6-0.8,1.3-1.4,2.1-1.9c1-0.6,1.9-1.3,2.7-2.1
				c0.8-0.9,1.3-2.1,1.3-3.3c0-1.3-0.5-2.5-1.4-3.3c-1-0.8-2.2-1.2-3.5-1.2c-3.1,0-4.7,1.7-4.7,5h2.7c0-1.8,0.7-2.7,2.1-2.7
				c1-0.1,1.9,0.6,2,1.6c0,0.2,0,0.3,0,0.5C175,64,174.4,65.1,173.4,65.7z"/>
			<polygon class="st2" points="164.9,70.1 157.8,70.1 157.8,58.5 154.8,58.5 154.8,72.8 164.9,72.8 			"/>
		</g>
	</g>
</g>
<path class="st2" d="M65.4,464.7l7.1,7.9c1.3,1.4,1.1,3.6-0.2,4.8l-9.8,8.7c-1.4,1.3-3.6,1.1-4.8-0.2l-7.1-7.9
	c-1.3-1.4-3.4-1.5-4.8-0.2l-9.8,8.7c-1.4,1.3-1.5,3.4-0.2,4.8l8.7,9.8c1.3,1.4,3.4,1.5,4.8,0.2l9.8-8.7c1.4-1.3,3.6-1.1,4.8,0.2
	l7.1,7.9c1.3,1.4,3.4,1.5,4.8,0.2l9.8-8.7c1.4-1.3,1.5-3.4,0.2-4.8l-7.1-7.9c-1.3-1.4-1.1-3.6,0.2-4.8l9.8-8.7
	c1.4-1.3,1.5-3.4,0.2-4.8l-8.7-9.8c-1.3-1.4-3.4-1.5-4.8-0.2l-9.8,8.7C64.2,461.1,64.1,463.3,65.4,464.7z"/>
<g>
	<path class="st2" d="M86.1,382.5l7.7,8.3c3.3,3.5,3,9.1-0.5,12.3l-17.4,16.1c-3.5,3.3-9.1,3-12.3-0.5l-7.7-8.3
		c-3.3-3.5-3-9.1,0.5-12.3L73.8,382C77.3,378.9,82.8,379,86.1,382.5z"/>
	<path class="st2" d="M72.9,367l-31.4,29.1c-6.4,5.9-6.7,15.9-0.9,22.2l14,15.1c5.9,6.4,15.9,6.7,22.2,0.9l31.4-29.1
		c6.4-5.9,6.7-15.9,0.9-22.2l-14-15.1C89.2,361.5,79.2,361.1,72.9,367z M99.6,387.9c4.2,4.6,4,11.8-0.6,16l-22.6,21
		c-4.6,4.2-11.8,4-16-0.6l-10.1-10.9c-4.2-4.6-4-11.8,0.6-16l22.6-21c4.6-4.2,11.8-4,16,0.6L99.6,387.9z"/>
</g>
<path class="st2" d="M94.6,441.5l37.8,40.2l40.2-37.8l-37.8-40.2L94.6,441.5z M100.1,441.7l6.1-5.8l-0.4,11.9L100.1,441.7z
	 M110.8,453l0.7-22l4.4-4.1l-1,30.6L110.8,453z M119.8,462.6l1.3-40.6l4.4-4.1l-1.5,49.1L119.8,462.6z M162.1,438.6l-0.3,9.9
	l-4.4,4.1l0.6-18.4L162.1,438.6z M153.1,429l-0.9,28.6l-4.4,4.1l1.1-37.1L153.1,429z M144.1,419.4l-1.4,47.2l-4.4,4.1L140,415
	L144.1,419.4z M135,409.8l-2.1,65.8l-0.5,0.5l-3.7-3.9l1.8-59.3l3.9-3.7L135,409.8z"/>
<polyline class="st46" points="47.7,373.4 50.1,359.2 57.4,354 61,354.7 67,350.4 67.7,346 75.2,340.7 80.9,341.7 "/>
<g>
	<path class="st2" d="M709.3,484.5l-3.9-15.2l-9.4-5.8l-17.4,4.4c-2.4,0.6-3.8,2.9-3.2,5.3l6.3,24.9l5.8-1.5l-3-11.7l17.5-4.5
		l3,11.7L709.3,484.5z M700.2,474.7l-17.3,4.4l-1-4c-0.3-1,0.4-2.1,1.4-2.3l15.4-3.9L700.2,474.7z"/>
	<path class="st2" d="M770.7,458.6l-3.4-13.3l-23.3,5.9l-4.1,7.3l4.7,17.9l6.8,4l-2.4-9.6l15.9,6.2l9.8-2.5l-19.4-7.5l12.3-3.1
		C769.9,463.2,771.3,460.9,770.7,458.6z M764,456.6c0.3,1-0.3,1.9-1.3,2.2l-15.8,4l-1.5-5.8l17.5-4.5L764,456.6z"/>
	<polygon class="st2" points="738.8,452.6 729.6,454.9 722.9,467.6 711,459.7 701.8,462 719.8,473.1 709.3,491.2 718.6,488.9 
		725.2,476.2 737.2,484.1 746.4,481.8 728.4,470.7 	"/>
	<path class="st2" d="M658.6,473l1.5,5.8l5.6-1.4l4.5,17.5l-9.8,2.5c-1,0.3-2.1-0.4-2.3-1.4l-1.2-4.9l-4.4,7.3
		c1.1,3.7,4.8,5.9,8.6,5l11.2-2.9c3-0.8,4.7-3.7,4-6.7l-6.1-23.8l-11.4,2.9L658.6,473z"/>
</g>
<path class="st2" d="M719.8,378.8l-9.9,2.4c-1.8,0.4-3.5-0.7-3.9-2.4l-2.9-12.3c-0.4-1.8,0.7-3.5,2.4-3.9l9.9-2.4
	c1.8-0.4,2.9-2.2,2.4-3.9l-3-12.3c-0.4-1.8-2.2-2.9-3.9-2.4l-12.3,2.9c-1.8,0.4-2.9,2.2-2.4,3.9l2.9,12.3c0.4,1.8-0.7,3.5-2.4,3.9
	l-9.9,2.4c-1.8,0.4-2.9,2.2-2.4,3.9l2.9,12.3c0.4,1.8,2.2,2.9,3.9,2.4l9.9-2.4c1.8-0.4,3.5,0.7,3.9,2.4L708,398
	c0.4,1.8,2.2,2.9,3.9,2.4l12.3-2.9c1.8-0.4,2.9-2.2,2.4-3.9l-2.9-12.3C723.4,379.5,721.6,378.4,719.8,378.8z"/>
<g>
	<polygon class="st2" points="686.6,433.8 688.3,440.3 692.3,431.4 700.2,437.1 698.4,430.6 690.7,425.3 	"/>
	<polygon class="st2" points="684,423.9 685.7,430.5 689.7,421.5 697.5,427.3 695.9,420.8 688.1,415.5 	"/>
	<polygon class="st2" points="681.4,414.1 683.1,420.7 687.1,411.7 695,417.5 693.2,411 685.5,405.6 	"/>
	<polygon class="st2" points="678.8,404.3 680.5,410.8 684.5,401.9 692.4,407.7 690.7,401.2 682.9,395.8 	"/>
</g>
<path class="st2" d="M742.5,353.3l-9.5-24.4c-0.3-0.7-0.8-1.3-1.6-1.7l-5.7-2.7c-2.5-1.2-5.2,1.3-4.2,3.9l9.7,24.7
	c0.3,0.8,0.9,1.4,1.6,1.7l5.6,2.4C740.9,358.3,743.6,355.8,742.5,353.3z M725,331.3l-1.2-3c-0.3-0.7,0.5-1.5,1.2-1.1l6.1,2.7
	c0.2,0.1,0.4,0.3,0.5,0.5l1.2,3c0.3,0.7-0.5,1.5-1.2,1.1l-6.1-2.7C725.2,331.7,725,331.5,725,331.3z M727.6,337.9l-1.2-3
	c-0.3-0.7,0.5-1.5,1.2-1.1l6.1,2.7c0.2,0.1,0.4,0.3,0.5,0.5l1.2,3c0.3,0.7-0.5,1.5-1.2,1.1l-6.1-2.7
	C727.8,338.3,727.7,338.2,727.6,337.9z M730.2,344.6l-1.2-3c-0.3-0.7,0.5-1.5,1.2-1.1l6.1,2.7c0.2,0.1,0.4,0.3,0.5,0.5l1.2,3
	c0.3,0.7-0.5,1.5-1.2,1.1l-6.1-2.7C730.4,345,730.3,344.8,730.2,344.6z M739.3,354.4l-6.1-2.7c-0.2-0.1-0.4-0.3-0.5-0.5l-1.2-3
	c-0.3-0.7,0.5-1.5,1.2-1.1l6.1,2.7c0.2,0.1,0.4,0.3,0.5,0.5l1.2,3C740.8,354,740.1,354.7,739.3,354.4z"/>
<polyline class="st46" points="674,386.3 666.1,381.6 664.6,376 665.9,374 664.6,369.4 662.2,367.9 660.7,362.2 662.6,359 "/>
</svg>
