<?xml version="1.0" encoding="utf-8"?>
<!-- Generator: Adobe Illustrator 27.8.1, SVG Export Plug-In . SVG Version: 6.00 Build 0)  -->
<svg version="1.1" id="Layer_1" xmlns="http://www.w3.org/2000/svg" xmlns:xlink="http://www.w3.org/1999/xlink" x="0px" y="0px"
	 viewBox="0 0 750 630.5" style="enable-background:new 0 0 750 630.5;" xml:space="preserve">
<style type="text/css">
	.st0{fill:none;}
	.st1{fill:url(#SVGID_1_);}
	.st2{fill:#0D0808;}
	.st3{fill:#141414;}
	.st4{fill:#120B0B;}
	.st5{fill:#242424;}
	.st6{fill:#292929;}
	.st7{fill:#191919;}
	.st8{fill:#1C1C1C;}
	.st9{fill:#171717;}
	.st10{fill:#0F0F0F;}
	.st11{fill:#1A1A1A;}
	.st12{fill:#1A1615;}
	.st13{fill:#0A0A0A;stroke:#000000;stroke-miterlimit:10;}
	.st14{fill:#6D6B6C;}
	.st15{fill:#080808;stroke:#140C0C;stroke-width:2;stroke-miterlimit:10;}
	.st16{stroke:#120B0B;stroke-width:2;stroke-miterlimit:10;}
	.st17{fill:#0A0A0A;}
	.st18{fill:#0D0D0D;}
	.st19{fill:#FFFFFF;}
	.st20{fill:#950AFF;}
	.st21{fill:none;stroke:#FFFFFF;stroke-width:2;stroke-miterlimit:10;}
</style>
<g id="Layer_1-2">
	<path d="M664.4,214c-6.7-16.7-20.5-20.9-21.8-22c-11.7-10.3-2.5-21.2-20-30.7c-18.3-9.9-72-37-114.2-31.4
		c-9.2,1.2-27.8,17.6-41.2,17.6H282.8c-13.4,0-32-16.4-41.2-17.6c-42.2-5.6-95.9,21.5-114.2,31.4c-17.5,9.5-8.2,20.4-19.9,30.7
		c-1.3,1.1-15.1,5.3-21.8,22C22.9,370-1.7,469.1,0.1,529.1C3,623.5,76.7,630.5,76.7,630.5c37-8.6,111.6-129.1,168.5-129.1h259.6
		c57,0,131.5,120.5,168.5,129.1c0,0,73.7-6.9,76.6-101.3C751.8,469.1,727.1,370,664.4,214z"/>
	<g>
		<path class="st0" d="M106.2,192.6c0.4-0.2,0.8-0.4,1.2-0.6C107,192.2,106.6,192.4,106.2,192.6z"/>
		<path class="st0" d="M642.6,192c0.5,0.3,1,0.6,1.5,0.8C643.6,192.5,643.1,192.2,642.6,192z"/>
		<linearGradient id="SVGID_1_" gradientUnits="userSpaceOnUse" x1="374.9969" y1="630.46" x2="374.9969" y2="157.1831">
			<stop  offset="0.4581" style="stop-color:#950AFF"/>
			<stop  offset="1" style="stop-color:#150D59"/>
		</linearGradient>
		<path class="st1" d="M664.4,214c-2.6-6.7-7.1-12.5-12.9-16.8c-2.3-1.7-4.8-3.1-7.4-4.4c-0.5-0.2-1-0.5-1.5-0.8
			c-33.6-18-97.5-38.2-117.5-34.3c-26,5-65.5,79.7-89,79.7h-121c-23.4,0-63-74.7-89-79.7c-19.6-3.8-85.6,16.5-118.8,34.3
			c-0.4,0.2-0.8,0.5-1.2,0.6c-3.1,1.4-6,3.2-8.7,5.3c-5.3,4.2-9.4,9.8-11.8,16.1C22.9,370-1.7,469.1,0.1,529.1
			C3,623.5,76.7,630.5,76.7,630.5c37-8.6,111.6-129.1,168.5-129.1h259.6c57,0,131.5,120.5,168.5,129.1c0,0,73.7-6.9,76.6-101.3
			C751.8,469.1,727.1,370,664.4,214z"/>
	</g>
	<line class="st0" x1="107.5" y1="192" x2="107.5" y2="193.5"/>
	<line class="st0" x1="642.5" y1="191.5" x2="642.5" y2="192.4"/>
	<g id="Dpad">
		<g>
			<path d="M277.7,462.1c-33.5,0-60.6-27.1-60.6-60.6c0-33.5,27.1-60.6,60.6-60.6s60.6,27.1,60.6,60.6c0,0,0,0,0,0
				C338.3,435,311.1,462.1,277.7,462.1z"/>
			<path class="st2" d="M277.7,341.9c32.9,0,59.6,26.7,59.6,59.7s-26.7,59.6-59.7,59.6c-32.9,0-59.6-26.7-59.6-59.6
				C218,368.6,244.7,341.9,277.7,341.9 M277.6,339.9c-34,0-61.6,27.6-61.6,61.6c0,34,27.6,61.6,61.6,61.6s61.6-27.6,61.6-61.6
				c0,0,0,0,0,0C339.3,367.5,311.7,339.9,277.6,339.9z"/>
		</g>
		<g>
			<g>
				<path class="st3" d="M277.7,452.7c-7.1,0-12.7-1.3-13-3.1c0,0,0-0.1,0-0.1V415c0-0.3-0.2-0.5-0.5-0.5h-34.4
					c-1.8,0-3.2-5.7-3.2-13.1s1.4-13.1,3.2-13.1h34.4c0.3,0,0.5-0.2,0.5-0.5v-34.4c0,0,0-0.1,0-0.1l0.1-0.2l0.1-0.1
					c0.5-0.8,2.1-1.5,4.5-2l0.9-0.2c0.3-0.1,0.7-0.1,1-0.1h0.2l0.9-0.1l1-0.1l1-0.1l2.4-0.1h1c7.3,0,13.1,1.4,13.1,3.2
					c0,0.2,0,16,0,34.4c0,0.3,0.2,0.5,0.5,0.5h34.4c1.8,0,3.2,5.7,3.2,13.1s-1.4,13.1-3.2,13.1h-34.4c-0.3,0-0.5,0.2-0.5,0.5v34.4
					c0,0,0,0.1,0,0.1C290.4,451.4,284.8,452.7,277.7,452.7z"/>
				<path class="st4" d="M277.7,350.8c8.1,0,12.6,1.6,12.6,2.7v34.4c0,0.6,0.4,1,1,1h34.4c1.1,0,2.7,4.8,2.7,12.5
					s-1.6,12.6-2.7,12.6h-34.4c-0.6,0-1,0.4-1,1v34.5c-0.2,1.1-4.7,2.7-12.6,2.7s-12.4-1.5-12.6-2.7V415c0-0.6-0.4-1-1-1h-34.4
					c-1.1,0-2.8-4.8-2.8-12.6s1.6-12.6,2.8-12.6h34.4c0.6,0,1-0.4,1-1v-34.5l0,0c0,0,0-0.1,0-0.1v0c0.1-0.2,0.9-1.1,4.2-1.8h0.1
					c0.3-0.1,0.5-0.1,0.8-0.2h0.1c0.3-0.1,0.5-0.1,0.8-0.1h0.2l0.9-0.1l0,0l1-0.1l0,0l1-0.1h0.1h0.6h0.6h1h1.1 M277.6,349.9h-1.2h-1
					h-0.2h-1h-0.1l-1,0.1l0,0l-1,0.1l0,0l-1,0.1h0c-0.3,0-0.6,0.1-0.9,0.1H270l-0.9,0.2l0,0c-2.4,0.5-4.2,1.2-4.9,2.2
					c0,0-0.1,0.1-0.1,0.2l0,0c0,0.1,0,0.1,0,0.2l0,0c0,0,0,0.1,0,0.1c0,0.1,0,0.1,0,0.2v34.4h-34.5c-5,0-5,27.1,0,27.1h34.4v34.4
					l0,0c0,0.1,0,0.2,0,0.2c0.4,2.3,7,3.5,13.5,3.5s13.1-1.2,13.5-3.5c0-0.1,0-0.2,0-0.2V415h34.4c5,0,5-27.1,0-27.1h-34.4v-34.4
					l0,0c0-2.5-6.8-3.7-13.6-3.7L277.6,349.9z"/>
			</g>
			<path class="st5" d="M264.1,387.9l-3.6-3.6h-30.8c-1,0-2,0.3-2.8,0.9l2.8,2.8H264.1z"/>
			<path class="st6" d="M229.7,387.9L229.7,387.9l-2.8-2.8c-1.4,0.9-2.7,2.7-3.5,6.1c-1.4,6.7-1.4,13.7,0,20.4
				c0.9,3.4,2.2,5.2,3.5,6.1l2.8-2.8C224.7,415,224.7,387.9,229.7,387.9z"/>
			<path class="st5" d="M269.2,350.5L269.2,350.5l0.9-0.2h0.1c0.3-0.1,0.6-0.1,0.9-0.1h0.1l1-0.1l0,0l1-0.1h0l1-0.1h0.1h1h0.2h1h1.2
				c6.8,0,13.6,1.2,13.6,3.7l2.8-2.8c-0.9-1.4-2.7-2.7-6.1-3.5c-6.7-1.4-13.6-1.4-20.4,0c-2.9,0.7-4.7,1.8-5.7,3l2.6,2.6
				C265,351.7,266.8,351,269.2,350.5z"/>
			<path class="st7" d="M325.6,387.9l2.8-2.8c-0.8-0.5-1.8-0.8-2.8-0.9h-30.8l-3.6,3.6H325.6z"/>
			<path class="st8" d="M291.2,353.5L291.2,353.5c0,0,0,15.4,0,34.4l3.6-3.6l0,0v-30.8c0-1-0.3-2-0.9-2.8L291.2,353.5L291.2,353.5z"
				/>
			<path class="st6" d="M264.1,353.5c0-0.1,0-0.1,0-0.2v-0.1l0,0c0-0.1,0-0.1,0-0.2l0,0c0-0.1,0.1-0.1,0.1-0.2l-2.6-2.6
				c-0.8,0.9-1.3,2.1-1.3,3.3v30.8l3.6,3.6L264.1,353.5z"/>
			<path class="st9" d="M325.6,415h-34.4l3.6,3.6h32.3l0.3-0.4c0.3-0.1,0.6-0.3,0.9-0.5L325.6,415L325.6,415z"/>
			<path class="st10" d="M291.2,449.5l2.8,2.8c0.5-0.8,0.8-1.8,0.8-2.8v-30.8l-3.6-3.6V449.5z"/>
			<path class="st10" d="M332,391.3c-0.8-3.4-2.2-5.2-3.5-6.1l-2.8,2.8c5,0,5,27.1,0,27.1l2.8,2.8c1.4-0.9,2.7-2.8,3.5-6.1
				c0.7-3.3,1.1-6.8,1-10.2C333.1,398.1,332.7,394.6,332,391.3z"/>
			<path class="st9" d="M291.2,449.7c-0.4,2.3-7,3.5-13.5,3.5s-13.1-1.2-13.5-3.5c0-0.1,0-0.2,0-0.2l-2.8,2.8
				c0.9,1.4,2.8,2.7,6.2,3.5c6.7,1.4,13.6,1.4,20.4,0c3.4-0.8,5.2-2.2,6.1-3.5l-2.8-2.8C291.2,449.5,291.2,449.6,291.2,449.7z"/>
			<path class="st8" d="M264.1,449.5L264.1,449.5V415l-3.6,3.6v31.6l0.1,0.2c0.1,0.6,0.4,1.2,0.7,1.7L264.1,449.5z"/>
			<path class="st11" d="M229.7,415l-2.8,2.8c0.8,0.5,1.8,0.8,2.8,0.9h30.8l3.6-3.6H229.7z"/>
		</g>
	</g>
	<g id="Menu_Key">
		<path class="st12" d="M448.9,280.4c0,10.4-8.4,18.8-18.8,18.8c-10.4,0-18.8-8.4-18.8-18.8c0-10.4,8.4-18.8,18.8-18.8c0,0,0,0,0,0
			C440.5,261.6,448.9,270,448.9,280.4z"/>
		<g>
			<path class="st13" d="M446.2,280.4c0,8.9-7.2,16.1-16.1,16.1s-16.1-7.2-16.1-16.1s7.2-16.1,16.1-16.1c0,0,0,0,0,0
				C439,264.3,446.2,271.5,446.2,280.4z"/>
			<g>
				<rect x="422.9" y="275.7" class="st14" width="14.4" height="1.5"/>
				<rect x="422.9" y="279.7" class="st14" width="14.4" height="1.5"/>
				<rect x="422.9" y="283.5" class="st14" width="14.4" height="1.5"/>
			</g>
		</g>
	</g>
	<g id="Switcher_Key">
		<path class="st12" d="M340.9,280.4c0,10.4-8.4,18.8-18.8,18.8c-10.4,0-18.8-8.4-18.8-18.8c0-10.4,8.4-18.8,18.8-18.8
			C332.5,261.6,340.9,270,340.9,280.4C340.9,280.4,340.9,280.4,340.9,280.4z"/>
		<g>
			<path class="st13" d="M338.2,280.4c0,8.9-7.2,16.1-16.1,16.1c-8.9,0-16.1-7.2-16.1-16.1c0-8.9,7.2-16.1,16.1-16.1
				C331,264.3,338.2,271.5,338.2,280.4C338.2,280.3,338.2,280.4,338.2,280.4z"/>
			<g>
				<polygon class="st14" points="319.6,280.3 316.6,280.3 316.6,276.5 322,276.5 322,277.8 323.8,277.8 323.8,274.7 315,274.7 
					315,282.1 319.6,282.1 				"/>
				<path class="st14" d="M320.4,278.4v7.6h9v-7.6L320.4,278.4z M327.5,284.2H322v-4h5.5L327.5,284.2z"/>
			</g>
		</g>
	</g>
	<g id="Left_Stick">
		<path class="st15" d="M185.5,351.5c-37.4,0-67.7-30.3-67.7-67.7s30.3-67.7,67.7-67.7c37.4,0,67.7,30.3,67.7,67.7
			C253.1,321.2,222.8,351.5,185.5,351.5z"/>
		<path class="st16" d="M241.6,279.9c0,31-25.1,56.1-56.1,56.1c-31,0-56.1-25.1-56.1-56.1s25.1-56.1,56.1-56.1
			C216.4,223.8,241.6,248.9,241.6,279.9C241.6,279.8,241.6,279.9,241.6,279.9z"/>
	</g>
	<g id="Right_Stick">
		<path class="st15" d="M473,465.5c-37.4,0-67.7-30.3-67.7-67.7c0-37.4,30.3-67.7,67.7-67.7c37.4,0,67.7,30.3,67.7,67.7c0,0,0,0,0,0
			C540.7,435.1,510.4,465.4,473,465.5z"/>
		<path class="st16" d="M529.2,393.8c0,31-25.1,56.1-56.1,56.1c-31,0-56.1-25.1-56.1-56.1c0-31,25.1-56.1,56-56.1
			C504,337.7,529.1,362.8,529.2,393.8C529.2,393.8,529.2,393.8,529.2,393.8z"/>
	</g>
	<g id="Button_Base">
		<g id="A">
			<path class="st17" d="M566.8,355.3c-13.9,0-25.2-11.3-25.2-25.2s11.3-25.2,25.2-25.2c13.9,0,25.2,11.3,25.2,25.2
				C592,344,580.7,355.3,566.8,355.3z"/>
			<path class="st12" d="M566.8,306.4c13.1,0,23.7,10.6,23.7,23.7c0,13.1-10.6,23.7-23.7,23.7c-13.1,0-23.7-10.6-23.7-23.7
				c0,0,0,0,0,0C543.1,317,553.7,306.4,566.8,306.4L566.8,306.4 M566.8,303.4c-14.7,0-26.7,12-26.7,26.7c0,14.7,12,26.7,26.7,26.7
				c14.7,0,26.7-12,26.7-26.7C593.5,315.3,581.5,303.4,566.8,303.4z"/>
		</g>
		<g id="Y">
			<path class="st17" d="M566.8,254.2c-13.9,0-25.2-11.3-25.2-25.2s11.3-25.2,25.2-25.2c13.9,0,25.2,11.3,25.2,25.2
				C592,242.9,580.7,254.2,566.8,254.2z"/>
			<path class="st12" d="M566.8,205.3c13.1,0,23.7,10.6,23.7,23.7c0,13.1-10.6,23.7-23.7,23.7c-13.1,0-23.7-10.6-23.7-23.7
				c0,0,0,0,0,0C543.1,215.9,553.7,205.3,566.8,205.3 M566.8,202.3c-14.7,0-26.7,12-26.7,26.7c0,14.7,12,26.7,26.7,26.7
				c14.7,0,26.7-12,26.7-26.7c0,0,0,0,0,0C593.5,214.3,581.5,202.3,566.8,202.3L566.8,202.3z"/>
		</g>
		<g id="B">
			<path class="st17" d="M617.3,304.7c-13.9,0-25.2-11.3-25.2-25.2s11.3-25.2,25.2-25.2c13.9,0,25.2,11.3,25.2,25.2
				C642.5,293.4,631.2,304.7,617.3,304.7z"/>
			<path class="st12" d="M617.3,255.8c13.1,0,23.7,10.6,23.7,23.7c0,13.1-10.6,23.7-23.7,23.7c-13.1,0-23.7-10.6-23.7-23.7
				c0,0,0,0,0,0C593.6,266.5,604.2,255.8,617.3,255.8C617.3,255.8,617.3,255.8,617.3,255.8 M617.3,252.8c-14.7,0-26.7,12-26.7,26.7
				c0,14.7,12,26.7,26.7,26.7c14.7,0,26.7-12,26.7-26.7c0,0,0,0,0,0C644,264.8,632,252.9,617.3,252.8z"/>
		</g>
		<g id="X">
			<path class="st17" d="M516.2,304.7c-13.9,0-25.2-11.3-25.2-25.2c0-13.9,11.3-25.2,25.2-25.2c13.9,0,25.2,11.3,25.2,25.2
				C541.4,293.4,530.1,304.7,516.2,304.7z"/>
			<path class="st12" d="M516.2,255.8c13.1,0,23.7,10.6,23.7,23.7c0,13.1-10.6,23.7-23.7,23.7c-13.1,0-23.7-10.6-23.7-23.7
				c0,0,0,0,0,0C492.5,266.4,503.1,255.8,516.2,255.8L516.2,255.8 M516.2,252.8c-14.7,0-26.7,12-26.7,26.7c0,14.7,12,26.7,26.7,26.7
				c14.7,0,26.7-12,26.7-26.7C542.9,264.8,531,252.8,516.2,252.8z"/>
		</g>
	</g>
	<g>
		<g>
			<path class="st11" d="M375.6,156.5c0,0-88.9-1.1-100.5-3L258.7,184c20.2,23.3,41.6,53.3,56.4,53.3h121c14.9,0,36.2-30,56.5-53.3
				l-16.4-30.5C464.6,155.4,375.6,156.5,375.6,156.5z"/>
			<path class="st18" d="M476.2,153.5l-3.6-6.8c-1.8,0.5-3.6,0.7-5.4,0.8H282.8c-1.4,0-2.9-0.2-4.3-0.5l-3.5,6.5
				c11.6,1.9,100.5,3,100.5,3S464.6,155.4,476.2,153.5z"/>
		</g>
		<g id="RB">
			<path class="st11" d="M642.5,192c-9-7.9-5.6-16.2-11.5-23.9c0.2,0.3,0.5,0.6,0.7,1c0,0-96.5-42.1-120.8-34.5
				c-15.6,4.9-27.2,15.3-32.8,18.2l15.8,29.5c11.2-12.7,22-23,31.1-24.8C545.1,153.8,609,174,642.5,192L642.5,192z"/>
			<path class="st18" d="M511,134.6c24.3-7.6,120.8,34.5,120.8,34.5c-0.2-0.3-0.5-0.6-0.7-1L631,168c-0.1-0.1-0.2-0.2-0.3-0.4
				l-0.1-0.2l-0.3-0.3c-0.1,0-0.1-0.1-0.2-0.2c-0.1-0.1-0.2-0.2-0.3-0.3l-0.2-0.2c-0.1-0.1-0.2-0.2-0.3-0.3
				c-0.1-0.1-0.1-0.1-0.2-0.2c-0.1-0.1-0.2-0.2-0.3-0.3l-0.2-0.2c-0.1-0.1-0.2-0.2-0.3-0.3l-0.2-0.2c-0.1-0.1-0.2-0.2-0.3-0.3
				l-0.3-0.2l-0.3-0.3c-0.1-0.1-0.2-0.1-0.3-0.2c-0.1-0.1-0.2-0.2-0.3-0.3c-0.1-0.1-0.2-0.1-0.3-0.2l-0.4-0.3l-0.3-0.2
				c-0.1-0.1-0.3-0.2-0.4-0.3l-0.3-0.2c-0.2-0.1-0.3-0.2-0.5-0.3c-0.1,0-0.2-0.1-0.3-0.2c-0.2-0.1-0.3-0.2-0.5-0.3l-0.2-0.2
				c-0.3-0.1-0.6-0.3-0.8-0.5c-18.3-9.9-72-37-114.2-31.4c-7.6,1-21.6,12.3-33.8,16.3l3.6,6.7C483.7,150,495.4,139.5,511,134.6z"/>
		</g>
		<g id="LB">
			<path class="st18" d="M241.6,129.9c-42.2-5.6-95.9,21.5-114.2,31.4c-0.3,0.2-0.6,0.3-0.8,0.5l-0.2,0.2c-0.2,0.1-0.4,0.2-0.5,0.3
				c-0.1,0.1-0.2,0.1-0.3,0.2l-0.4,0.3l-0.3,0.2c-0.1,0.1-0.3,0.2-0.4,0.3l-0.3,0.2l-0.4,0.3c-0.1,0.1-0.2,0.1-0.2,0.2
				c-0.1,0.1-0.3,0.2-0.4,0.3c-0.1,0.1-0.2,0.1-0.2,0.2c-0.1,0.1-0.2,0.2-0.4,0.3l-0.2,0.2c-0.1,0.1-0.2,0.2-0.3,0.3l-0.2,0.2
				c-0.1,0.1-0.2,0.2-0.3,0.3c-0.1,0.1-0.1,0.1-0.2,0.1c-0.1,0.1-0.2,0.2-0.3,0.3l-0.2,0.1c-0.1,0.1-0.2,0.2-0.3,0.3l-0.1,0.2
				c-0.1,0.1-0.2,0.2-0.3,0.4l-0.1,0.1c-0.1,0.1-0.2,0.2-0.3,0.4l-0.1,0.1c-0.1,0.1-0.2,0.3-0.3,0.4l0,0c-0.1,0.1-0.2,0.3-0.3,0.4
				v0.1c-0.1,0.1-0.2,0.3-0.3,0.5c0,0,97.7-42,122-34.4c15.5,4.9,27.2,15.3,32.8,18.2l3.4-6.3C264.1,142.9,249.5,130.9,241.6,129.9z
				"/>
			<g>
				<path class="st11" d="M273.6,153.1l0.5,0.2L273.6,153.1z"/>
				<path class="st11" d="M273.1,152.9c-5.6-2.9-17.3-13.4-32.8-18.2c-24.2-7.6-121.3,34.1-122,34.4c-5,7.4-2.2,15.3-10.8,23h-0.1
					c33.2-17.9,99.2-38.1,118.8-34.3c9.1,1.8,19.9,12.1,31.1,24.8L273.1,152.9L273.1,152.9z"/>
				<path d="M273.1,152.9c0.2,0.1,0.3,0.2,0.5,0.2C273.4,153,273.3,152.9,273.1,152.9z"/>
			</g>
			<path d="M258,183.2c0.2,0.3,0.5,0.6,0.7,0.8l16.4-30.5l3.5-6.5c-0.4-0.1-0.7-0.1-1-0.2s-0.7-0.2-1-0.3l-3.4,6.3l-15.9,29.6
				C257.6,182.7,257.8,183,258,183.2L258,183.2"/>
		</g>
		<path d="M478.1,152.8l-3.6-6.7c-0.3,0.1-0.7,0.2-1,0.3l-1,0.3l3.6,6.8l16.4,30.5c0.2-0.3,0.5-0.5,0.7-0.8s0.5-0.5,0.7-0.8
			L478.1,152.8z"/>
		<path class="st11" d="M357,169.3L357,169.3z"/>
	</g>
	<g>
		<g>
			
				<image style="overflow:visible;opacity:0.75;enable-background:new    ;" width="102" height="102" xlink:href="384AA609.png"  transform="matrix(1 0 0 1 324.24 145.41)">
			</image>
			<path class="st19" d="M407.6,196.4c0,18-14.6,32.6-32.6,32.6s-32.6-14.6-32.6-32.6s14.6-32.6,32.6-32.6c0,0,0,0,0,0
				C393,163.8,407.6,178.4,407.6,196.4z"/>
		</g>
		<path class="st11" d="M384,182c0,0,8.9-9.4,13.8-8.9l0,0c-0.7-0.7-1.5-1.4-2.3-2l0,0c-0.4-0.3-0.8-0.6-1.2-0.9c0,0,0,0-0.1-0.1
			l-1.2-0.8l0,0c-0.4-0.1-0.8-0.1-1.2-0.2c-5.2-0.5-16.9,4.5-16.9,4.5s-11.6-5-16.9-4.5c-0.4,0-0.8,0.1-1.2,0.2l0,0l-1.2,0.8
			l-0.1,0.1c-0.4,0.3-0.8,0.6-1.2,0.9l0,0c-0.8,0.6-1.5,1.3-2.3,2l0,0c4.8-0.5,13.7,8.9,13.7,8.9s-17.7,20.9-17,34.1
			c1.1,1.4,2.3,2.8,3.6,4c-0.4-12,22.4-30.1,22.4-30.1s22.8,18.1,22.4,30.1c1.3-1.2,2.5-2.6,3.6-4l0,0C401.7,202.9,384,182,384,182z
			"/>
	</g>
	<g>
		<g>
			<path class="st11" d="M549.1,5.5c-0.4-0.3-0.8-0.6-1.2-0.9l-2.3,110l53.3,7.2C586.7,5,555.8,10.8,549.1,5.5z"/>
			<path class="st3" d="M522,0.1c-10.8,0.4-12,11.4-12.1,15.2v1.2c1.8,31,1.8,62.1,0,93.1c9.9,2.3,38.5,5.3,38.5,5.3
				s0-20.9,0.7-50.6c0.8-37.5-1.2-59.8-1.2-59.8C541.5,0.1,534.3-0.3,522,0.1z"/>
		</g>
		<g>
			<path class="st11" d="M201,5.5c0.4-0.3,0.8-0.6,1.2-0.9l2.3,110l-53.2,7.2C163.4,5,194.2,10.8,201,5.5z"/>
			<path class="st3" d="M228,0.1c10.8,0.4,12.1,11.4,12.2,15.2v1.2c-1.8,31-1.8,62.1,0,93.1c-9.9,2.3-38.5,5.3-38.5,5.3
				s0-20.9-0.7-50.6c-0.8-37.5,1.2-59.8,1.2-59.8C208.6,0.1,215.8-0.3,228,0.1z"/>
		</g>
	</g>
</g>
<g>
	<path class="st19" d="M368.5,333.5l0-12.2l-6-6.2h-14c-1.9,0-3.4,1.5-3.4,3.4v20h4.7v-9.4h14.1v9.4L368.5,333.5z M363.5,324.4
		h-13.9v-3.2c0-0.8,0.7-1.5,1.5-1.5l12.4,0V324.4z"/>
	<path class="st19" d="M419.8,325.8v-10.7h-18.7l-4.5,4.7l0.1,14.4l4.4,4.3v-7.7l10.8,7.7h7.9l-13.2-9.4h9.9
		C418.3,329.1,419.8,327.6,419.8,325.8z M415.1,323c0,0.8-0.6,1.4-1.4,1.4h-12.7v-4.7h14.1V323z"/>
	<polygon class="st19" points="396.9,315.1 389.5,315.1 382,323.4 374.5,315.1 367.1,315.1 378.6,326.9 367.2,338.6 374.6,338.6 
		382.1,330.3 389.6,338.6 397,338.6 385.5,326.8 	"/>
	<path class="st19" d="M332.4,315.1v4.7h4.5v14.1H329c-0.8,0-1.5-0.7-1.5-1.5v-3.9l-4.7,4.7c0.1,3,2.5,5.4,5.5,5.4h9
		c2.4,0,4.3-1.9,4.3-4.3v-19.1H332.4z"/>
</g>
<path class="st19" d="M678.1,431.7l-14,14.1c-2.5,2.5-6.5,2.5-9,0l-17.5-17.4c-2.5-2.5-2.5-6.5,0-9l14-14.1c2.5-2.5,2.5-6.6,0-9
	L634,378.9c-2.5-2.5-6.6-2.5-9,0l-17.4,17.5c-2.5,2.5-2.5,6.6,0,9l17.5,17.4c2.5,2.5,2.5,6.5,0,9l-14,14.1c-2.5,2.5-2.5,6.6,0,9
	l17.5,17.4c2.5,2.5,6.6,2.5,9,0l14-14.1c2.5-2.5,6.5-2.5,9,0l17.5,17.4c2.5,2.5,6.6,2.5,9,0l17.4-17.5c2.5-2.5,2.5-6.6,0-9
	l-17.5-17.4C684.7,429.2,680.6,429.2,678.1,431.7z"/>
<path class="st19" d="M67.8,492.7l8.9,9.9c1.6,1.8,1.4,4.5-0.3,6l-12.3,11c-1.8,1.6-4.5,1.4-6-0.3l-8.9-9.9c-1.6-1.8-4.3-1.9-6-0.3
	l-12.3,11c-1.8,1.6-1.9,4.3-0.3,6l11,12.3c1.6,1.8,4.3,1.9,6,0.3l12.3-11c1.8-1.6,4.5-1.4,6,0.3l8.9,9.9c1.6,1.8,4.3,1.9,6,0.3
	l12.3-11c1.8-1.6,1.9-4.3,0.3-6l-8.9-9.9c-1.6-1.8-1.4-4.5,0.3-6l12.3-11c1.8-1.6,1.9-4.3,0.3-6l-11-12.3c-1.6-1.8-4.3-1.9-6-0.3
	l-12.3,11C66.3,488.2,66.2,490.9,67.8,492.7z"/>
<g>
	<polygon class="st19" points="679.2,557 688.7,566.1 686.3,547.2 705.2,548.6 695.7,539.6 677.4,538.7 	"/>
	<polygon class="st19" points="664.8,543.3 674.4,552.4 671.9,533.5 690.8,535 681.3,525.9 663,525.1 	"/>
	<polygon class="st19" points="650.4,529.7 660,538.8 657.5,519.9 676.5,521.3 666.9,512.3 648.6,511.4 	"/>
	<polygon class="st19" points="636.1,516.1 645.6,525.1 643.1,506.3 662.1,507.7 652.6,498.7 634.2,497.8 	"/>
</g>
<path class="st19" d="M693.9,372.9c0.8-3.3-0.3-6.6-3-8.6L650,333.5c-1.7-1.3-3.7-1.8-5.8-1.6l-12.2,1.3c-3.4,0.4-6.1,2.7-7,6
	c-0.9,3.3,0.2,6.7,3,8.7l41.4,31.1c1.7,1.3,4,1.9,6.1,1.6l11.7-1.7C690.5,378.5,693.1,376.2,693.9,372.9z M644.8,349l12.8-1.8
	c0.5-0.1,0.9,0.1,1.3,0.3l5,3.8c1.2,0.9,0.7,2.9-0.8,3.1l-12.8,1.8c-0.5,0.1-0.9-0.1-1.3-0.3l-5-3.8
	C642.8,351.2,643.3,349.2,644.8,349z M639.2,347.8c-0.5,0.1-0.9-0.1-1.3-0.3l-5-3.8c-1.2-0.9-0.7-2.9,0.8-3.1l12.8-1.8
	c0.5-0.1,0.9,0.1,1.3,0.3l5,3.8c1.2,0.9,0.7,2.9-0.8,3.1L639.2,347.8z M656,357.4l12.8-1.8c0.5-0.1,0.9,0.1,1.3,0.3l5,3.8
	c1.2,0.9,0.7,2.9-0.8,3.1l-12.8,1.8c-0.5,0.1-0.9-0.1-1.3-0.3l-5-3.8C654,359.6,654.5,357.6,656,357.4z M667.2,365.8l12.8-1.8
	c0.5-0.1,0.9,0.1,1.3,0.3l5,3.8c1.2,0.9,0.7,2.9-0.8,3.1l-12.8,1.8c-0.5,0.1-0.9-0.1-1.3-0.3l-5-3.8
	C665.1,368,665.6,366,667.2,365.8z"/>
<path class="st20" d="M692.9,372.6c0.7-2.8-0.3-5.7-2.6-7.5l-40.9-30.8c-1.5-1.1-3.2-1.6-5-1.4l-12.2,1.3c-3,0.3-5.3,2.3-6.1,5.2
	c-0.8,2.9,0.2,5.8,2.6,7.6l41.4,31.1c1.5,1.1,3.4,1.6,5.3,1.4l11.7-1.7C689.9,377.5,692.1,375.5,692.9,372.6z M633.7,340.6l12.8-1.8
	c0.5-0.1,0.9,0.1,1.3,0.3l5,3.8c1.2,0.9,0.7,2.9-0.8,3.1l-12.8,1.8c-0.5,0.1-0.9-0.1-1.3-0.3l-5-3.8
	C631.6,342.8,632.1,340.9,633.7,340.6z M656,357.4l12.8-1.8c0.5-0.1,0.9,0.1,1.3,0.3l5,3.8c1.2,0.9,0.7,2.9-0.8,3.1l-12.8,1.8
	c-0.5,0.1-0.9-0.1-1.3-0.3l-5-3.8C654,359.6,654.5,357.6,656,357.4z M650.3,356.2c-0.5,0.1-0.9-0.1-1.3-0.3l-5-3.8
	c-1.2-0.9-0.7-2.9,0.8-3.1l12.8-1.8c0.5-0.1,0.9,0.1,1.3,0.3l5,3.8c1.2,0.9,0.7,2.9-0.8,3.1L650.3,356.2z M671.4,372.7l-5-3.8
	c-1.2-0.9-0.7-2.9,0.8-3.1l12.8-1.8c0.5-0.1,0.9,0.1,1.3,0.3l5,3.8c1.2,0.9,0.7,2.9-0.8,3.1l-12.8,1.8
	C672.2,373.1,671.7,373,671.4,372.7z"/>
<path class="st19" d="M689.6,366l-40.9-30.8c-1.2-0.9-2.7-1.3-4.3-1.2l-12.2,1.3c-5.4,0.6-7.4,7.5-3,10.8l41.4,31.1
	c1.3,1,2.9,1.4,4.5,1.2l11.7-1.7C692.1,376.1,693.9,369.2,689.6,366z M637.9,347.5l-5-3.8c-1.2-0.9-0.7-2.9,0.8-3.1l12.8-1.8
	c0.5-0.1,0.9,0.1,1.3,0.3l5,3.8c1.2,0.9,0.7,2.9-0.8,3.1l-12.8,1.8C638.7,347.9,638.2,347.8,637.9,347.5z M649,355.9l-5-3.8
	c-1.2-0.9-0.7-2.9,0.8-3.1l12.8-1.8c0.5-0.1,0.9,0.1,1.3,0.3l5,3.8c1.2,0.9,0.7,2.9-0.8,3.1l-12.8,1.8
	C649.9,356.3,649.4,356.2,649,355.9z M660.2,364.3l-5-3.8c-1.2-0.9-0.7-2.9,0.8-3.1l12.8-1.8c0.5-0.1,0.9,0.1,1.3,0.3l5,3.8
	c1.2,0.9,0.7,2.9-0.8,3.1l-12.8,1.8C661,364.7,660.6,364.6,660.2,364.3z M685.4,371.2l-12.8,1.8c-0.5,0.1-0.9-0.1-1.3-0.3l-5-3.8
	c-1.2-0.9-0.7-2.9,0.8-3.1l12.8-1.8c0.5-0.1,0.9,0.1,1.3,0.3l5,3.8C687.5,369,687,371,685.4,371.2z"/>
<g>
	<path class="st19" d="M93.8,389.2l9.7,10.5c4.1,4.4,3.8,11.4-0.6,15.5l-21.9,20.3c-4.4,4.1-11.4,3.8-15.5-0.6l-9.7-10.5
		c-4.1-4.4-3.8-11.4,0.6-15.5l21.9-20.3C82.8,384.6,89.7,384.8,93.8,389.2z"/>
	<path class="st19" d="M77.2,369.7l-39.6,36.7c-8,7.4-8.5,20-1.1,28l17.6,19c7.4,8,20,8.5,28,1.1l39.6-36.7c8-7.4,8.5-20,1.1-28
		l-17.6-19C97.8,362.7,85.2,362.2,77.2,369.7z M110.8,396c5.3,5.8,5,14.8-0.8,20.1l-28.5,26.4c-5.8,5.3-14.8,5-20.1-0.8l-12.7-13.7
		c-5.3-5.8-5-14.8,0.8-20.1l28.5-26.4c5.8-5.3,14.8-5,20.1,0.8L110.8,396z"/>
</g>
<g>
	<polygon class="st19" points="376.3,351.3 364,363.5 358.4,363.5 370.6,351.3 	"/>
	<polygon class="st19" points="395.5,351.3 395.5,356.9 388.9,363.5 383.2,363.5 395.4,351.3 	"/>
	<polygon class="st19" points="388.7,351.3 376.5,363.5 370.8,363.5 383,351.3 	"/>
	<polygon class="st19" points="363.9,351.3 351.6,363.5 351,363.5 351,358.5 358.2,351.3 	"/>
</g>
<polygon class="st19" points="395.4,365.6 395.5,365.5 395.5,365.6 "/>
<path class="st19" d="M104.5,463.5l47.6,50.6l50.6-47.6l-47.6-50.6L104.5,463.5z M111.5,463.7l7.7-7.3l-0.5,15L111.5,463.7z
	 M125,478l0.9-27.7l5.5-5.2l-1.2,38.5L125,478z M136.3,490.1l1.6-51.2l5.5-5.2l-1.9,61.9L136.3,490.1z M189.6,459.9l-0.4,12.5
	l-5.5,5.2l0.7-23.2L189.6,459.9z M178.3,447.8l-1.1,36l-5.5,5.2l1.4-46.7L178.3,447.8z M166.9,435.7l-1.8,59.4l-5.5,5.2l2.2-70.2
	L166.9,435.7z M155.5,423.6l-2.6,82.9l-0.6,0.6l-4.6-4.9l2.3-74.7l4.9-4.6L155.5,423.6z"/>
<polyline class="st21" points="609.8,491.1 591.7,491.4 583.6,483.7 583.6,479.1 576.8,472.6 571.3,472.7 563,464.7 562.8,457.5 "/>
<polyline class="st21" points="45.5,377.7 48.5,359.8 57.7,353.3 62.2,354.1 69.8,348.7 70.7,343.2 80.1,336.5 87.3,337.8 "/>
<polyline class="st21" points="185.9,190.3 202.1,182.2 212.7,185.7 214.7,189.7 223.6,192.6 228.6,190.1 239.6,193.8 242.8,200.2 
	"/>
<polyline class="st21" points="511.6,211.8 519.8,195.7 530.4,192.2 534.5,194.3 543.4,191.4 545.9,186.4 556.9,182.8 563.3,186.1 
	"/>
<path class="st19" d="M119.5,220.6l-6.4,3c-1.6,0.7-3.3-0.8-2.7-2.5l5-13.8c0.2-0.5,0.5-0.9,1-1.1l6.4-3c1.6-0.7,3.3,0.8,2.7,2.5
	l-5,13.8C120.3,220,119.9,220.4,119.5,220.6z"/>
<path class="st19" d="M133.7,214l-6.4,3c-1.6,0.7-3.3-0.8-2.7-2.5l5-13.8c0.2-0.5,0.5-0.9,1-1.1l6.4-3c1.6-0.7,3.3,0.8,2.7,2.5
	l-5,13.8C134.5,213.3,134.1,213.7,133.7,214z"/>
<path class="st19" d="M147.9,207.3l-6.4,3c-1.6,0.7-3.3-0.8-2.7-2.5l5-13.8c0.2-0.5,0.5-0.9,1-1.1l6.4-3c1.6-0.7,3.3,0.8,2.7,2.5
	l-5,13.8C148.7,206.7,148.4,207.1,147.9,207.3z"/>
<path class="st19" d="M162.6,200.4l-6.4,3c-1.6,0.7-3.3-0.8-2.7-2.5l5-13.8c0.2-0.5,0.5-0.9,1-1.1l6.4-3c1.6-0.7,3.3,0.8,2.7,2.5
	l-5,13.8C163.4,199.8,163.1,200.2,162.6,200.4z"/>
<path class="st19" d="M611.3,208.2l-4.4,12.8l37.8,12.9l4.4-12.8L611.3,208.2z M609.8,219.8l1.3-3.8l7.3-3.6l4.3,1.5l-12.4,6.1
	L609.8,219.8z M615.4,221.7l12.4-6.1l4.3,1.5l-12.4,6.1L615.4,221.7z M624.8,224.9l12.4-6.1l4.3,1.5l-12.4,6.1L624.8,224.9z
	 M643.2,232.1L643.2,232.1L643.2,232.1L643.2,232.1z M645.2,226.3l-6.7,3.3l-4.3-1.5l12.4-6.1l0.1,0L645.2,226.3z"/>
</svg>
